<svg width="177" height="36" viewBox="0 0 177 36" fill="none" xmlns="http://www.w3.org/2000/svg">
<path d="M8.56001 29.56C6.53335 29.56 4.84001 29.1333 3.48001 28.28C2.14668 27.4267 1.22668 26.1867 0.720012 24.56C0.240012 22.9333 0.240012 20.9733 0.720012 18.68L3.08001 7.4H11.84L9.64001 17.84C9.29335 19.52 9.38668 20.8 9.92001 21.68C10.48 22.5333 11.3867 22.96 12.64 22.96C13.6 22.96 14.4133 22.7867 15.08 22.44C15.7733 22.0933 16.32 21.5867 16.72 20.92C17.1467 20.2533 17.4667 19.4267 17.68 18.44L20 7.4H28.76L24.2 29.16H15.88L15.96 26.52H15.68C14.9333 27.4533 13.92 28.2 12.64 28.76C11.36 29.2933 10 29.56 8.56001 29.56ZM31.71 7.6H38.79L38.55 10.08H38.75C39.5233 9.14667 40.5233 8.44 41.75 7.96C43.0033 7.45334 44.3767 7.2 45.87 7.2C47.79 7.2 49.47 7.61334 50.91 8.44C52.3767 9.26667 53.4833 10.4533 54.23 12C55.0033 13.5467 55.3367 15.32 55.23 17.32C55.15 19.7467 54.59 21.88 53.55 23.72C52.51 25.56 51.1233 27 49.39 28.04C47.6833 29.0533 45.71 29.56 43.47 29.56C41.6567 29.56 40.03 29.1733 38.59 28.4C37.15 27.6 36.2167 26.5467 35.79 25.24H35.59L33.35 35.84H25.83L31.71 7.6ZM41.71 23.8C42.8567 23.8267 43.87 23.5867 44.75 23.08C45.63 22.5467 46.3233 21.8133 46.83 20.88C47.3633 19.92 47.6433 18.8267 47.67 17.6C47.7233 16.16 47.31 15.0133 46.43 14.16C45.55 13.28 44.39 12.84 42.95 12.84C41.8833 12.84 40.9367 13.04 40.11 13.44C39.31 13.8133 38.67 14.3467 38.19 15.04C37.71 15.7067 37.3767 16.48 37.19 17.36L37.07 17.96C36.8567 19.08 36.8967 20.08 37.19 20.96C37.51 21.84 38.0567 22.5333 38.83 23.04C39.63 23.52 40.59 23.7733 41.71 23.8ZM59.8991 7.76H65.6191L65.1391 11.24H65.2991C65.9657 10.0933 66.8991 9.17334 68.0991 8.48C69.2991 7.78667 70.5791 7.44 71.9391 7.44C72.2057 7.44 72.4191 7.45334 72.5791 7.48C73.0324 7.50667 73.4324 7.54667 73.7791 7.6L72.5791 13.36C71.9924 13.1733 71.2724 13.08 70.4191 13.08C69.3524 13.1067 68.3924 13.32 67.5391 13.72C66.6857 14.12 65.9391 14.7467 65.2991 15.6C64.6857 16.4267 64.2191 17.48 63.8991 18.76L61.7391 29.16H55.4191L59.8991 7.76Z" fill="#030712" style="fill:#030712;fill:color(display-p3 0.0118 0.0275 0.0706);fill-opacity:1;"/>
<path d="M84.1416 29.52C81.7149 29.52 79.6216 29.1067 77.8616 28.28C76.1016 27.4533 74.7549 26.28 73.8216 24.76C72.9149 23.2133 72.4749 21.44 72.5016 19.44C72.5282 17.12 73.1149 15.0533 74.2616 13.24C75.4082 11.4267 76.9816 10.0133 78.9816 9C81.0082 7.98667 83.3282 7.48 85.9416 7.48C88.5549 7.48 90.7816 7.98667 92.6216 9C94.4616 10.0133 95.7816 11.4533 96.5816 13.32C97.3816 15.16 97.5682 17.3067 97.1416 19.76H75.8216L78.7816 18.08C78.1949 19.4933 78.0482 20.7733 78.3416 21.92C78.6349 23.04 79.3016 23.92 80.3416 24.56C81.4082 25.2 82.7149 25.52 84.2616 25.52C85.8349 25.52 87.1949 25.24 88.3416 24.68C89.4882 24.0933 90.3016 23.32 90.7816 22.36H96.5816C96.2082 23.8 95.4349 25.0667 94.2616 26.16C93.0882 27.2533 91.6216 28.0933 89.8616 28.68C88.1282 29.24 86.2216 29.52 84.1416 29.52ZM78.0616 16.4H92.0616L91.6616 16.88C91.7416 15.76 91.5682 14.7867 91.1416 13.96C90.7149 13.1333 90.0349 12.4933 89.1016 12.04C88.1682 11.5867 87.0482 11.36 85.7416 11.36C84.4616 11.36 83.3016 11.5867 82.2616 12.04C81.2482 12.4933 80.4082 13.1333 79.7416 13.96C79.0749 14.7867 78.6482 15.7333 78.4616 16.8L78.0616 16.4ZM108.286 29.56C106.366 29.56 104.673 29.16 103.206 28.36C101.766 27.56 100.673 26.4267 99.9263 24.96C99.1796 23.4667 98.8463 21.7467 98.9263 19.8C99.0063 17.4 99.5663 15.28 100.606 13.44C101.673 11.5733 103.1 10.1333 104.886 9.12C106.673 8.08 108.673 7.56 110.886 7.56C112.966 7.56 114.78 8.04 116.326 9C117.9 9.93334 118.873 11.1867 119.246 12.76H119.366L120.606 7.96H125.326L120.926 29.16H116.126L116.686 25.84H116.566C115.686 26.9867 114.526 27.8933 113.086 28.56C111.646 29.2267 110.046 29.56 108.286 29.56ZM110.086 25.72C111.42 25.72 112.633 25.48 113.726 25C114.82 24.4933 115.713 23.8 116.406 22.92C117.126 22.0133 117.606 20.9867 117.846 19.84L118.046 19C118.34 17.56 118.273 16.28 117.846 15.16C117.446 14.0133 116.726 13.12 115.686 12.48C114.646 11.8133 113.38 11.48 111.886 11.48C110.393 11.4533 109.046 11.7867 107.846 12.48C106.646 13.1467 105.7 14.1067 105.006 15.36C104.313 16.6133 103.94 18.0267 103.886 19.6C103.86 20.8267 104.086 21.9067 104.566 22.84C105.073 23.7467 105.806 24.4533 106.766 24.96C107.726 25.4667 108.833 25.72 110.086 25.72ZM135.381 29.56C133.461 29.56 131.767 29.1733 130.301 28.4C128.861 27.6 127.754 26.4667 126.981 25C126.234 23.5333 125.901 21.84 125.981 19.92C126.061 17.5733 126.634 15.48 127.701 13.64C128.767 11.7733 130.194 10.32 131.981 9.28C133.794 8.24 135.834 7.72 138.101 7.72C140.314 7.72 142.207 8.22667 143.781 9.24C145.354 10.2533 146.327 11.6133 146.701 13.32H146.821L149.621 2.38419e-06H153.581L147.501 29.16H143.821L144.381 25.6H144.261C143.381 26.88 142.154 27.8667 140.581 28.56C139.034 29.2267 137.301 29.56 135.381 29.56ZM136.701 26.44C138.301 26.44 139.701 26.1733 140.901 25.64C142.127 25.1067 143.114 24.36 143.861 23.4C144.634 22.4133 145.154 21.28 145.421 20L145.621 19.12C145.914 17.52 145.821 16.0933 145.341 14.84C144.887 13.5867 144.087 12.6133 142.941 11.92C141.794 11.2267 140.394 10.88 138.741 10.88C137.114 10.88 135.634 11.2533 134.301 12C132.994 12.7467 131.954 13.8 131.181 15.16C130.434 16.52 130.034 18.0667 129.981 19.8C129.901 21.8 130.474 23.4133 131.701 24.64C132.927 25.84 134.594 26.44 136.701 26.44ZM149.801 33.04H152.321C153.707 33.04 154.787 32.8133 155.561 32.36C156.334 31.9067 157.107 31.1333 157.881 30.04L159.961 27.04L159.881 28.6L153.601 8.2H157.081L160.681 21.2L161.721 24.8H161.841L164.321 21.08L172.761 8.2H176.521L160.681 31.44C159.907 32.56 159.094 33.44 158.241 34.08C157.414 34.72 156.494 35.1733 155.481 35.44C154.467 35.7067 153.321 35.84 152.041 35.84H149.241L149.801 33.04Z" fill="black" style="fill:black;fill-opacity:1;"/>
</svg>
