<svg width="24" height="24" viewBox="0 0 24 24" fill="none" xmlns="http://www.w3.org/2000/svg">
<path d="M17.3375 20.7377C16.3031 21.7403 15.1738 21.582 14.0868 21.1071C12.9363 20.6216 11.8809 20.6005 10.6672 21.1071C9.14738 21.7615 8.34526 21.5715 7.43759 20.7377C2.28713 15.4289 3.04704 7.34439 8.89408 7.04887C10.3189 7.12275 11.311 7.82988 12.1448 7.89321C13.3902 7.63991 14.5828 6.91167 15.9126 7.00665C17.5063 7.1333 18.7095 7.76656 19.5011 8.90641C16.2082 10.8801 16.9892 15.2178 20.0077 16.4316C19.4061 18.0147 18.6251 19.5873 17.3269 20.7483L17.3375 20.7377ZM12.0392 6.98554C11.8809 4.63195 13.7912 2.68998 15.9865 2.5C16.2926 5.22299 13.5168 7.2494 12.0392 6.98554Z" fill="#E4E6E7"/>
</svg>
