<svg width="16" height="16" viewBox="0 0 16 16" fill="none" xmlns="http://www.w3.org/2000/svg">
<path d="M10.3617 10.3627V12.8363C10.3617 13.827 9.55787 14.6301 8.56797 14.6301H3.17365C2.18298 14.6301 1.37988 13.827 1.37988 12.8363V7.44202C1.37988 6.45059 2.18298 5.64825 3.17365 5.64825H5.64726V8.56897C5.64726 9.55963 6.45036 10.3627 7.44103 10.3627H10.3617Z" fill="#006399"/>
<path d="M14.6291 3.17347V8.56779C14.6291 9.55846 13.826 10.3616 12.8353 10.3616H10.3625V7.44085C10.3625 6.44941 9.55864 5.64708 8.56874 5.64708H5.64803V3.17347C5.64803 2.1828 6.45113 1.3797 7.44179 1.3797H12.8361C13.8275 1.3797 14.6291 2.18357 14.6291 3.17347Z" fill="#006399"/>
</svg>
