<svg width="16" height="16" viewBox="0 0 16 16" fill="none" xmlns="http://www.w3.org/2000/svg">
<path d="M14.6297 3.40256V10.5868C14.1948 10.4176 13.7477 10.2408 13.456 10.1298C12.7793 9.87176 12.2219 9.2792 11.9065 8.45084C11.7901 8.1446 11.6898 7.58802 11.6477 7.26647C11.5176 6.26279 11.2902 4.25083 11.1271 3.25251C11.0751 2.93632 10.605 2.93632 10.5529 3.25251C10.3899 4.25083 10.1625 6.26279 10.0323 7.26647C9.98639 7.624 9.90218 8.11398 9.77356 8.45084C9.4635 9.26312 8.91763 9.86411 8.22401 10.1298C7.6858 10.3357 6.61552 10.7629 6.07425 10.9612C5.82314 11.0531 5.82314 11.4014 6.07425 11.4925C6.56882 11.6724 7.5503 12.056 8.04487 12.2344C8.94979 12.5613 9.44895 13.0053 9.81567 13.9133C9.8884 14.0932 9.99175 14.3589 10.0974 14.6299H3.40235C2.28536 14.6299 1.37891 13.7242 1.37891 12.6072V3.40256C1.37891 2.28557 2.28536 1.37988 3.40235 1.37988H12.6062C13.724 1.37988 14.6297 2.28557 14.6297 3.40256Z" fill="#006399"/>
<path d="M13.6344 12.2347C13.8839 12.1444 14.2575 12.0028 14.6296 11.8604V12.6076C14.6296 13.7246 13.7239 14.6302 12.6062 14.6302H11.5811C11.6875 14.3592 11.7908 14.0936 11.8643 13.9137C12.2295 13.0103 12.7294 12.5616 13.6344 12.2347Z" fill="#006399"/>
</svg>
