<svg width="16" height="16" viewBox="0 0 16 16" fill="none" xmlns="http://www.w3.org/2000/svg">
<path d="M12.0442 7.39789V12.8542C12.0442 13.8319 11.2511 14.625 10.2726 14.625H3.1458C2.16815 14.625 1.375 13.8319 1.375 12.8542V5.72738C1.375 4.74896 2.16815 3.95581 3.1458 3.95581H8.60213V6.39803C8.60213 6.95002 9.05 7.39789 9.60199 7.39789H12.0442Z" fill="#006399"/>
<path d="M14.625 2.37461V6.39777C14.625 6.94975 14.1771 7.39762 13.6251 7.39762L12.0442 7.39789L12.0442 5.72711C12.0442 4.74869 11.2511 3.95555 10.2726 3.95555L8.60213 3.95581L8.60214 2.37461C8.60214 1.82262 9.05 1.37476 9.60199 1.37476H13.6251C14.1771 1.37476 14.625 1.82262 14.625 2.37461Z" fill="#006399"/>
</svg>
