<svg width="87" height="11" viewBox="0 0 87 11" fill="none" xmlns="http://www.w3.org/2000/svg">
<path d="M10.0617 0.0145264H9.90081L7.03552 5.94734L6.27949 7.68069L7.02748 9.37044L8.78686 5.87261L9.36595 4.31779L9.68566 5.87261L10.7554 11H12.3479L10.0617 0.0145264ZM6.16689 7.93602L5.86126 7.23645L5.73458 6.94583L5.29826 5.94734L2.37265 0.0145264H2.19973L0 11H1.60657L2.58981 5.87261L2.89544 4.31779L3.56099 5.87261L6.12265 11H6.20912L6.91086 9.60501L6.1689 7.93187V7.93602H6.16689Z" fill="black"/>
<path d="M13.882 11V0.0145264H15.5027V11H13.882Z" fill="black"/>
<path d="M25.4799 11L19.2547 3.88602L19.2989 5.08171V11H17.6783V0H17.8814L24.1347 7.20325L24.0764 5.94735V0.014531H25.6971V11H25.4799Z" fill="black"/>
<path d="M27.8687 11V0.0145264H29.4893V11H27.8687Z" fill="black"/>
<path d="M37.1622 11L34.6005 5.87261L33.935 4.31779L33.6314 5.87261L32.6461 11H31.0396L33.2393 0.0145264H33.4122L36.3358 5.94734L37.2044 7.93602L38.0731 5.94734L40.9404 0.0145264H41.0992L43.3874 11H41.7949L40.7232 5.87261L40.4055 4.31779L39.8264 5.87261L37.2487 11H37.1622Z" fill="black"/>
<path d="M48.9611 0H49.12L54.2453 11H52.3774L51.4645 8.84733H46.5845L45.6716 11H43.8619L48.9611 0ZM49.0335 3.18437L48.3961 4.679L47.2379 7.34025H50.8291L49.685 4.6956L49.0617 3.18645H49.0335V3.18437Z" fill="black"/>
<path d="M55.0838 11V0.0145264H56.7205V9.50537H59.7748V11H55.0838Z" fill="black"/>
<path d="M65.3485 0H65.5074L70.6327 11H68.7647L67.8519 8.84733H62.9739L62.061 11H60.2513L65.3485 0ZM65.4209 3.18437L64.7835 4.679L63.6253 7.34025H67.2165L66.0724 4.6956L65.4491 3.18645H65.4209V3.18437Z" fill="black"/>
<path d="M78.7962 6.25873C79.1843 5.62352 79.3794 4.86167 79.3794 3.99811C79.3794 3.25288 79.2426 2.61974 78.9712 2.11946C78.6997 1.6171 78.3277 1.20815 77.8633 0.905078C77.3928 0.595775 76.8458 0.373657 76.2386 0.240802C75.6213 0.107947 74.9759 0.0415192 74.3184 0.0415192H71.4993V11H73.0677V8.19551H73.7755C73.9665 8.19551 74.2098 8.19343 74.5034 8.18721C74.7929 8.18098 75.0422 8.17268 75.2473 8.16022L75.376 8.15192L76.8438 11H78.6012L76.8137 7.8177L77.0248 7.72637C77.815 7.38385 78.4102 6.88979 78.7962 6.25873ZM76.2306 6.63446C75.8043 6.81921 75.2393 6.91263 74.5536 6.91263H73.0677V1.36177H74.4812C75.1126 1.36177 75.6836 1.4448 76.1783 1.60464C76.693 1.77279 77.1012 2.05511 77.3968 2.43914C77.6944 2.83148 77.8472 3.36082 77.8472 4.0168C77.8472 4.30534 77.805 4.62087 77.7225 4.95509C77.6381 5.29968 77.4752 5.62352 77.2399 5.91414C77.0027 6.20683 76.6629 6.44763 76.2306 6.63446Z" fill="black"/>
<path d="M82.6407 11V1.48009H79.9182V0.0145264H86.998V1.48009H84.2473V11H82.6407Z" fill="black"/>
<path d="M5.86123 7.23645L5.73254 6.94583H5.73455L5.86123 7.23645Z" fill="black"/>
</svg>
