<svg width="67" height="16" viewBox="0 0 67 16" fill="none" xmlns="http://www.w3.org/2000/svg">
<path d="M59.537 15.9543C56.8266 15.7194 54.6403 13.5512 54.4596 10.8228V0.0898438H55.7606V10.2446C55.7244 16.0627 64.3794 16.4061 64.795 10.624V0.0898438H66.1502V10.624C66.0418 13.4247 63.8735 15.6833 61.0728 15.9543C60.6753 15.9905 59.9344 15.9905 59.5189 15.9543H59.537Z" fill="black"/>
<path d="M40.8719 15.864L40.9261 15.6472L47.1598 0.125982L48.244 0.0898438L54.5862 15.7917C54.5862 15.7917 54.4777 15.864 54.4597 15.864H53.1948L51.2073 11.0396H44.1242L42.2451 15.864H40.8357H40.8719ZM50.8278 9.82897L47.6838 1.91481L44.6302 9.82897H50.8098H50.8278Z" fill="black"/>
<path d="M28.2235 0.090271L22.1343 9.8294H25.4228V7.78762L25.4951 7.71534H28.3681V15.7921L28.2958 15.8644H25.4951L25.4228 15.7921V12.7204H16.533L16.5872 12.5759L24.411 0.090271H28.2235Z" fill="black"/>
<path d="M35.9028 0L36.1377 0.0542045C38.6493 0.343307 40.42 2.11406 40.5826 4.66178C40.7272 6.81197 40.4742 9.10672 40.5826 11.275C40.4923 13.7324 38.577 15.7199 36.1377 15.9729C35.7763 16.009 35.0535 16.009 34.6921 15.9729C32.2348 15.7561 30.2472 13.6962 30.193 11.2208C30.3014 9.08866 30.0665 6.83004 30.193 4.71598C30.3918 1.60813 32.8853 -0.180692 35.9028 0.0180659V0ZM35.3065 2.80068C33.8068 2.85488 33.1744 4.0113 33.084 5.36646C32.9937 6.92039 32.9937 9.07058 33.084 10.6245C33.1563 11.9074 33.7345 13.0277 35.1439 13.1542C36.7339 13.2806 37.5831 12.1965 37.6735 10.7329C37.7638 9.14285 37.7819 6.81197 37.6735 5.23998C37.5831 3.84868 36.8062 2.76454 35.2884 2.81875L35.3065 2.80068Z" fill="black"/>
<path d="M36.1376 0.0542045C36.1376 0.0542045 35.9388 0.0903444 35.9027 0C36.0111 0 36.0834 0.0361356 36.1376 0.0542045Z" fill="black"/>
<path d="M9.8114 7.13715H0V15.8644H9.8114V7.13715Z" fill="#F9D442"/>
<path d="M15.8103 0.0898438V7.15478L10.4077 15.7556L10.2993 15.8098V0.0898438H15.8103Z" fill="#F9D442"/>
<path d="M9.81137 6.64929H0.776917L9.81137 0.433594V6.64929Z" fill="#F9D442"/>
</svg>
