<svg width="120" height="22" viewBox="0 0 120 22" fill="none" xmlns="http://www.w3.org/2000/svg">
<g clip-path="url(#clip0_795_11005)">
<path d="M0.026123 3.94356C0.026123 3.26699 0.74781 2.82702 1.36177 3.12939L6.65904 5.74088V11.8698C6.65904 12.731 7.15304 13.5192 7.93411 13.9043L12.7147 16.2611V18.059C12.7147 18.7356 11.9931 19.1756 11.3791 18.8726L1.30117 13.9043C0.520104 13.5192 0.026123 12.7316 0.026123 11.8698V3.94356ZM6.65904 3.94356C6.65904 3.26699 7.38076 2.82702 7.99467 3.12999L13.292 5.74149V11.8704C13.292 12.7316 13.7859 13.5198 14.567 13.9049L19.3477 16.2617V18.0596C19.3477 18.7362 18.626 19.1762 18.012 18.8732L12.7147 16.2617V10.1328C12.7147 9.27096 12.2207 8.48334 11.4397 8.09828L6.65904 5.74149V3.94356ZM13.2914 3.94356C13.2914 3.26699 14.013 2.82702 14.627 3.12999L24.705 8.09828C25.4866 8.48334 25.98 9.27096 25.98 10.1328V18.0596C25.98 18.7362 25.2583 19.1762 24.6444 18.8732L19.3471 16.2617V10.1328C19.3471 9.27096 18.8531 8.48334 18.072 8.09828L13.2914 5.74149V3.94356Z" fill="#02131C"/>
</g>
<path d="M35.12 17H33.312V5.352H35.12L38.976 14.84L42.832 5.352H44.672V17H42.864V13C42.864 12.4347 42.864 11.9547 42.864 11.56C42.864 11.1653 42.8693 10.8293 42.88 10.552C42.8907 10.2747 42.9013 10.0293 42.912 9.816C42.9333 9.60267 42.9547 9.38933 42.976 9.176L39.84 17H38.112L34.992 9.208C35.0453 9.528 35.0773 9.97067 35.088 10.536C35.1093 11.0907 35.12 11.7467 35.12 12.504V17ZM49.0244 17.208C48.1924 17.208 47.5364 16.984 47.0564 16.536C46.5764 16.088 46.3364 15.5013 46.3364 14.776C46.3364 14.0507 46.5924 13.4747 47.1044 13.048C47.6164 12.6107 48.3364 12.3547 49.2644 12.28L51.6644 12.088V11.896C51.6644 11.512 51.5897 11.2027 51.4404 10.968C51.3017 10.7227 51.1044 10.5467 50.8484 10.44C50.5924 10.3333 50.2937 10.28 49.9524 10.28C49.355 10.28 48.891 10.4027 48.5604 10.648C48.2404 10.8933 48.0804 11.2347 48.0804 11.672H46.5604C46.5604 11.1067 46.7044 10.616 46.9924 10.2C47.2804 9.784 47.6857 9.464 48.2084 9.24C48.731 9.016 49.339 8.904 50.0324 8.904C50.7257 8.904 51.323 9.02667 51.8244 9.272C52.3257 9.50667 52.7097 9.86933 52.9764 10.36C53.2537 10.84 53.3924 11.4373 53.3924 12.152V17H51.8564L51.7124 15.784C51.5204 16.2107 51.179 16.5573 50.6884 16.824C50.2084 17.08 49.6537 17.208 49.0244 17.208ZM49.5844 15.848C50.2244 15.848 50.731 15.6613 51.1044 15.288C51.4884 14.904 51.6804 14.3867 51.6804 13.736V13.304L49.8884 13.464C49.259 13.5173 48.8057 13.6507 48.5284 13.864C48.2617 14.0773 48.1284 14.36 48.1284 14.712C48.1284 15.0853 48.2564 15.368 48.5124 15.56C48.7684 15.752 49.1257 15.848 49.5844 15.848ZM59.8399 9.08V10.728H59.1359C58.4319 10.728 57.8719 10.9253 57.4559 11.32C57.0505 11.704 56.8479 12.28 56.8479 13.048V17H55.0719V9.144H56.7359L56.8799 10.76H56.7199C56.8265 10.2373 57.0772 9.81067 57.4719 9.48C57.8665 9.14933 58.3785 8.984 59.0079 8.984C59.1359 8.984 59.2639 8.99467 59.3919 9.016C59.5305 9.02667 59.6799 9.048 59.8399 9.08ZM62.6689 17H60.9089V5.144H62.6689V12.584L65.9009 9.128H68.1249L65.1329 12.264L68.0769 17H66.0449L63.9009 13.56L62.6689 14.84V17ZM72.107 17.208C71.339 17.208 70.6563 17.032 70.059 16.68C69.4617 16.328 68.9923 15.8427 68.651 15.224C68.3203 14.5947 68.155 13.8747 68.155 13.064C68.155 12.2427 68.315 11.5227 68.635 10.904C68.9657 10.2747 69.4243 9.784 70.011 9.432C70.5977 9.08 71.275 8.904 72.043 8.904C72.8217 8.904 73.4937 9.06933 74.059 9.4C74.6243 9.72 75.0617 10.1787 75.371 10.776C75.6803 11.3627 75.835 12.0613 75.835 12.872V13.448L69.083 13.464L69.115 12.312H74.075C74.075 11.7253 73.8937 11.256 73.531 10.904C73.1683 10.5413 72.6777 10.36 72.059 10.36C71.579 10.36 71.1737 10.4613 70.843 10.664C70.5123 10.8667 70.2617 11.1707 70.091 11.576C69.9203 11.9707 69.835 12.4507 69.835 13.016C69.835 13.9013 70.027 14.5787 70.411 15.048C70.8057 15.5067 71.3817 15.736 72.139 15.736C72.6937 15.736 73.147 15.6293 73.499 15.416C73.8617 15.2027 74.1017 14.8987 74.219 14.504H75.867C75.6857 15.3467 75.2643 16.008 74.603 16.488C73.9417 16.968 73.1097 17.208 72.107 17.208ZM76.2494 9.128H81.0494V10.616H76.2494V9.128ZM81.0014 15.464L81.2254 16.904C80.788 17.0853 80.3134 17.176 79.8014 17.176C79.3214 17.176 78.9054 17.0907 78.5534 16.92C78.2014 16.7387 77.9294 16.4613 77.7374 16.088C77.556 15.7147 77.4654 15.2293 77.4654 14.632V6.664H79.2254V14.344C79.2254 14.8027 79.316 15.128 79.4974 15.32C79.6894 15.512 79.9347 15.608 80.2334 15.608C80.468 15.608 80.724 15.56 81.0014 15.464ZM82.2919 20.6V9.128H83.9239L84.0359 10.408C84.2919 9.91733 84.6652 9.544 85.1559 9.288C85.6465 9.032 86.1959 8.904 86.8039 8.904C87.5505 8.904 88.1959 9.07467 88.7399 9.416C89.2945 9.75733 89.7212 10.232 90.0199 10.84C90.3292 11.448 90.4839 12.1627 90.4839 12.984C90.4839 13.7947 90.3399 14.52 90.0519 15.16C89.7639 15.7893 89.3479 16.2907 88.8039 16.664C88.2599 17.0267 87.5932 17.208 86.8039 17.208C86.1959 17.208 85.6465 17.0907 85.1559 16.856C84.6759 16.6107 84.3132 16.2747 84.0679 15.848V20.6H82.2919ZM84.0839 13.064C84.0839 13.5547 84.1745 13.9973 84.3559 14.392C84.5479 14.776 84.8199 15.0747 85.1719 15.288C85.5239 15.5013 85.9345 15.608 86.4039 15.608C86.8839 15.608 87.2945 15.5013 87.6359 15.288C87.9772 15.064 88.2385 14.76 88.4199 14.376C88.6012 13.992 88.6919 13.5547 88.6919 13.064C88.6919 12.5627 88.6012 12.1253 88.4199 11.752C88.2385 11.368 87.9772 11.0693 87.6359 10.856C87.2945 10.632 86.8839 10.52 86.4039 10.52C85.9345 10.52 85.5239 10.6267 85.1719 10.84C84.8199 11.0533 84.5479 11.352 84.3559 11.736C84.1745 12.12 84.0839 12.5627 84.0839 13.064ZM93.5451 17H91.7851V5.144H93.5451V17ZM97.6594 17.208C96.8274 17.208 96.1714 16.984 95.6914 16.536C95.2114 16.088 94.9714 15.5013 94.9714 14.776C94.9714 14.0507 95.2274 13.4747 95.7394 13.048C96.2514 12.6107 96.9714 12.3547 97.8994 12.28L100.299 12.088V11.896C100.299 11.512 100.225 11.2027 100.075 10.968C99.9367 10.7227 99.7394 10.5467 99.4834 10.44C99.2274 10.3333 98.9287 10.28 98.5874 10.28C97.99 10.28 97.526 10.4027 97.1954 10.648C96.8754 10.8933 96.7154 11.2347 96.7154 11.672H95.1954C95.1954 11.1067 95.3394 10.616 95.6274 10.2C95.9154 9.784 96.3207 9.464 96.8434 9.24C97.366 9.016 97.974 8.904 98.6674 8.904C99.3607 8.904 99.958 9.02667 100.459 9.272C100.961 9.50667 101.345 9.86933 101.611 10.36C101.889 10.84 102.027 11.4373 102.027 12.152V17H100.491L100.347 15.784C100.155 16.2107 99.814 16.5573 99.3234 16.824C98.8434 17.08 98.2887 17.208 97.6594 17.208ZM98.2194 15.848C98.8594 15.848 99.366 15.6613 99.7394 15.288C100.123 14.904 100.315 14.3867 100.315 13.736V13.304L98.5234 13.464C97.894 13.5173 97.4407 13.6507 97.1634 13.864C96.8967 14.0773 96.7634 14.36 96.7634 14.712C96.7634 15.0853 96.8914 15.368 97.1474 15.56C97.4034 15.752 97.7607 15.848 98.2194 15.848ZM103.227 13.064C103.227 12.2427 103.392 11.5227 103.723 10.904C104.054 10.2747 104.512 9.784 105.099 9.432C105.686 9.08 106.363 8.904 107.131 8.904C108.176 8.904 109.035 9.176 109.707 9.72C110.379 10.264 110.774 10.9893 110.891 11.896H109.099C108.982 11.4267 108.752 11.0747 108.411 10.84C108.08 10.6053 107.675 10.488 107.195 10.488C106.758 10.488 106.374 10.5947 106.043 10.808C105.712 11.0107 105.451 11.304 105.259 11.688C105.078 12.072 104.987 12.5253 104.987 13.048C104.987 13.5707 105.072 14.024 105.243 14.408C105.424 14.792 105.675 15.0907 105.995 15.304C106.315 15.5067 106.694 15.608 107.131 15.608C107.643 15.608 108.07 15.4853 108.411 15.24C108.763 14.9947 108.998 14.648 109.115 14.2H110.891C110.806 14.7973 110.592 15.32 110.251 15.768C109.91 16.216 109.472 16.568 108.939 16.824C108.406 17.08 107.803 17.208 107.131 17.208C106.352 17.208 105.664 17.0373 105.067 16.696C104.48 16.344 104.027 15.8587 103.707 15.24C103.387 14.6213 103.227 13.896 103.227 13.064ZM115.562 17.208C114.794 17.208 114.111 17.032 113.514 16.68C112.917 16.328 112.447 15.8427 112.106 15.224C111.775 14.5947 111.61 13.8747 111.61 13.064C111.61 12.2427 111.77 11.5227 112.09 10.904C112.421 10.2747 112.879 9.784 113.466 9.432C114.053 9.08 114.73 8.904 115.498 8.904C116.277 8.904 116.949 9.06933 117.514 9.4C118.079 9.72 118.517 10.1787 118.826 10.776C119.135 11.3627 119.29 12.0613 119.29 12.872V13.448L112.538 13.464L112.57 12.312H117.53C117.53 11.7253 117.349 11.256 116.986 10.904C116.623 10.5413 116.133 10.36 115.514 10.36C115.034 10.36 114.629 10.4613 114.298 10.664C113.967 10.8667 113.717 11.1707 113.546 11.576C113.375 11.9707 113.29 12.4507 113.29 13.016C113.29 13.9013 113.482 14.5787 113.866 15.048C114.261 15.5067 114.837 15.736 115.594 15.736C116.149 15.736 116.602 15.6293 116.954 15.416C117.317 15.2027 117.557 14.8987 117.674 14.504H119.322C119.141 15.3467 118.719 16.008 118.058 16.488C117.397 16.968 116.565 17.208 115.562 17.208Z" fill="#02131C"/>
<defs>
<clipPath id="clip0_795_11005">
<rect width="26" height="16" fill="white" transform="translate(0 3)"/>
</clipPath>
</defs>
</svg>
