<svg width="54" height="15" viewBox="0 0 54 15" fill="none" xmlns="http://www.w3.org/2000/svg">
<path d="M6.51273e-06 14.3293V0.201815H3.55207V14.3293H6.51273e-06ZM6.36606 14.3293V0.201815H9.51448L16.0333 8.09304H16.0737V0.201815H19.6056V14.3293H16.659L9.9383 6.13537H9.89794V14.3293H6.36606ZM22.3896 14.3293V0.201815H25.9417V14.3293H22.3896ZM32.4692 14.3293V3.30987H27.9282V0.201815H40.542V3.30987H36.0212V14.3293H32.4692ZM47.1405 14.5312C46.4005 14.5312 45.6739 14.4773 44.9608 14.3697C44.2477 14.2621 43.5481 14.1141 42.8619 13.9257L41.6308 13.5826L42.1959 10.858L43.7903 11.1002C44.2612 11.1675 44.8061 11.2347 45.425 11.302C46.0574 11.3558 46.6763 11.3827 47.2818 11.3827C47.9814 11.3827 48.486 11.2886 48.7954 11.1002C49.1183 10.8984 49.2798 10.6158 49.2798 10.2525C49.2798 10.0507 49.226 9.8758 49.1183 9.7278C49.0107 9.57979 48.7618 9.42506 48.3716 9.26361C47.9949 9.0887 47.4029 8.88015 46.5956 8.63796C45.4788 8.30159 44.5908 7.95849 43.9315 7.60867C43.2722 7.24539 42.8013 6.80811 42.5188 6.29683C42.2497 5.77209 42.1151 5.10608 42.1151 4.2988C42.1151 3.28969 42.364 2.46895 42.8619 1.83657C43.3732 1.2042 44.0661 0.740007 44.9406 0.444002C45.8287 0.147996 46.8243 -6.22491e-06 47.9276 -6.22491e-06C48.5465 -6.22491e-06 49.1789 0.0470857 49.8247 0.14127C50.484 0.235453 51.1366 0.37 51.7824 0.544912L52.7511 0.787099L52.2466 3.47133L50.7127 3.28969C50.3495 3.24932 49.9324 3.20896 49.4614 3.16859C49.004 3.12823 48.4927 3.10805 47.9276 3.10805C47.1876 3.10805 46.6359 3.20223 46.2727 3.3906C45.9094 3.57896 45.7277 3.86824 45.7277 4.25843C45.7277 4.4468 45.7883 4.61498 45.9094 4.76298C46.0439 4.89753 46.3198 5.03881 46.7369 5.18681C47.1674 5.32136 47.8132 5.50972 48.6743 5.75191C49.7776 6.02101 50.6455 6.34392 51.2778 6.72065C51.9102 7.09739 52.3609 7.5414 52.63 8.05268C52.8991 8.5505 53.0337 9.15597 53.0337 9.86907C53.0337 10.932 52.7713 11.8066 52.2466 12.4928C51.7218 13.1789 51.0155 13.6902 50.1275 14.0266C49.2394 14.363 48.2438 14.5312 47.1405 14.5312Z" fill="#121212"/>
</svg>
