<svg width="114" height="16" viewBox="0 0 114 16" fill="none" xmlns="http://www.w3.org/2000/svg">
<g clip-path="url(#clip0_1210_94625)">
<path d="M21.4276 12.6464V8.15368H16.6055V12.6464H15.2247V2.84507H16.6055V6.83448H21.4276V2.84507H22.8083V12.6464H21.4276ZM27.9442 12.6464V8.41858L24.2414 2.84507H25.8993L28.6503 7.0305L31.3856 2.84507H33.0278L29.325 8.41858V12.6464H27.9442ZM34.4766 12.6464V2.84507H38.4828C40.5016 2.84507 41.6888 3.93646 41.6888 5.72719C41.6888 7.51792 40.5016 8.6411 38.4828 8.6411H35.8573V12.6464H34.4766ZM35.8573 7.33779H38.4305C39.6177 7.33779 40.2819 6.74971 40.2819 5.72719C40.2819 4.70468 39.6177 4.15898 38.4305 4.15898H35.8573V7.33779ZM43.5769 12.6464V2.84507H49.5496V4.15898H44.9628V6.83448H49.5496V8.14838H44.9628V11.3272H49.5496V12.6411H43.5769V12.6464ZM51.8142 12.6464V2.84507H55.9617C57.9805 2.84507 59.1677 3.90997 59.1677 5.65832C59.1677 7.40666 58.0903 8.3868 56.2493 8.48746L59.4396 12.6464H57.7137L54.5338 8.47156H53.195V12.6464H51.8142ZM53.2002 7.20004H55.9669C57.1123 7.20004 57.766 6.63845 57.766 5.65832C57.766 4.67819 57.1175 4.15898 55.9669 4.15898H53.2002V7.19474V7.20004ZM64.5965 12.8424C62.2063 12.8424 60.7681 11.6239 60.7524 9.64772H62.175C62.1907 10.8398 63.1007 11.5921 64.5913 11.5921C66.0818 11.5921 66.7617 10.8928 66.7617 9.82785C66.7617 8.76295 66.223 8.45567 65.1195 8.30203L63.8486 8.12189C61.9971 7.86759 61.0714 6.94574 61.0714 5.47819C61.0714 4.01064 62.4417 2.64905 64.5285 2.64905C66.6153 2.64905 68.0274 3.71395 68.0692 5.41991H66.6467C66.6048 4.46627 65.8046 3.87819 64.5337 3.87819C63.2628 3.87819 62.5149 4.46627 62.5149 5.38812C62.5149 6.30997 63.0798 6.63315 64.2722 6.80269L65.4751 6.97223C67.2743 7.22653 68.2104 8.16428 68.2104 9.74309C68.2104 11.3219 66.8402 12.8371 64.6017 12.8371L64.5965 12.8424ZM74.1884 12.8424C71.6048 12.8424 69.837 11.0623 69.837 7.74574C69.837 4.42918 71.6048 2.64905 74.1884 2.64905C76.7721 2.64905 78.5294 4.42918 78.5294 7.74574C78.5294 11.0623 76.7616 12.8424 74.1884 12.8424ZM71.2543 7.74574C71.2543 10.2782 72.4573 11.5391 74.1832 11.5391C75.9091 11.5391 77.1015 10.2782 77.1015 7.74574C77.1015 5.21329 75.8986 3.95236 74.1832 3.95236C72.4677 3.95236 71.2543 5.21329 71.2543 7.74574ZM80.7417 12.6464V2.84507H82.4257L86.9445 10.4742V2.84507H88.3253V12.6464H86.6412L82.1224 5.00137V12.6464H80.7417ZM90.9769 12.6464V2.84507H92.3576V12.6464H90.9769ZM98.9266 12.8424C96.3534 12.8424 94.5856 11.1365 94.5856 7.76163C94.5856 4.3868 96.2854 2.64905 98.9527 2.64905C101.62 2.64905 102.488 3.88348 102.781 5.9815H101.327C101.118 4.69408 100.166 3.95236 98.9527 3.95236C97.185 3.95236 96.0082 5.11262 96.0082 7.73514C96.0082 10.3577 97.2373 11.5444 98.9266 11.5444C100.616 11.5444 101.113 10.6332 101.332 9.37223H102.771C102.441 11.4014 101.113 12.8424 98.9266 12.8424ZM103.675 12.6464L107.368 2.84507H109.235L112.927 12.6464H111.406L110.37 9.79077H106.223L105.187 12.6464H103.681H103.675ZM106.678 8.51395H109.91L108.294 4.06362L106.678 8.51395Z" fill="#0D34BD"/>
<path d="M21.4277 12.6463H21.3335V12.7416H21.4277V12.6463ZM21.4277 8.15357H21.5218V8.05821H21.4277V8.15357ZM16.6003 8.15357V8.05821H16.5062V8.15357H16.6003ZM16.6003 12.6463V12.7416H16.6945V12.6463H16.6003ZM15.2196 12.6463H15.1255V12.7416H15.2196V12.6463ZM15.2196 2.84496V2.7496H15.1255V2.84496H15.2196ZM16.6003 2.84496H16.6945V2.7496H16.6003V2.84496ZM16.6003 6.83436H16.5062V6.92973H16.6003V6.83436ZM21.4277 6.83436V6.92973H21.5218V6.83436H21.4277ZM21.4277 2.84496V2.7496H21.3335V2.84496H21.4277ZM22.8084 2.84496H22.9026V2.7496H22.8084V2.84496ZM22.8084 12.6463V12.7416H22.9026V12.6463H22.8084ZM21.5218 12.6463V8.15357H21.3335V12.6463H21.5218ZM21.4277 8.05821H16.6056V8.24893H21.4277V8.05821ZM16.5062 8.15357V12.6463H16.6945V8.15357H16.5062ZM16.6003 12.5509H15.2196V12.7416H16.6003V12.5509ZM15.3137 12.6463V2.84496H15.1255V12.6463H15.3137ZM15.2196 2.94032H16.6003V2.7496H15.2196V2.94032ZM16.5062 2.84496V6.83436H16.6945V2.84496H16.5062ZM16.6003 6.92973H21.4224V6.739H16.6003V6.92973ZM21.5218 6.83436V2.84496H21.3335V6.83436H21.5218ZM21.4277 2.94032H22.8084V2.7496H21.4277V2.94032ZM22.7143 2.84496V12.6463H22.9026V2.84496H22.7143ZM22.8084 12.5509H21.4277V12.7416H22.8084V12.5509ZM27.9443 12.6463H27.8502V12.7416H27.9443V12.6463ZM27.9443 8.41847H28.0385V8.39198L28.0228 8.36549L27.9443 8.41847ZM24.2414 2.84496V2.7496H24.0636L24.163 2.89794L24.2414 2.84496ZM25.8994 2.84496L25.9778 2.79198L25.9517 2.7496H25.8994V2.84496ZM28.6504 7.03039L28.5719 7.08337L28.6504 7.20523L28.7288 7.08337L28.6504 7.03039ZM31.3857 2.84496V2.7496H31.3334L31.3073 2.79198L31.3857 2.84496ZM33.0332 2.84496L33.1116 2.89794L33.211 2.7496H33.0332V2.84496ZM29.3303 8.41847L29.2518 8.36549L29.2362 8.39198V8.41847H29.3303ZM29.3303 12.6463V12.7416H29.4244V12.6463H29.3303ZM28.0385 12.6463V8.41847H27.8502V12.6463H28.0385ZM28.0228 8.36549L24.3199 2.79198L24.163 2.89794L27.8659 8.47145L28.0228 8.36549ZM24.2414 2.94032H25.8994V2.7496H24.2414V2.94032ZM25.8209 2.89794L28.5719 7.08337L28.7288 6.97741L25.9778 2.79198L25.8209 2.89794ZM28.7288 7.08337L31.4642 2.89794L31.3073 2.79198L28.5719 6.97741L28.7288 7.08337ZM31.3857 2.94032H33.0279V2.7496H31.3857V2.94032ZM32.9547 2.79198L29.2518 8.36549L29.4087 8.47145L33.1116 2.89794L32.9547 2.79198ZM29.2362 8.41847V12.6463H29.4244V8.41847H29.2362ZM29.3303 12.5509H27.9496V12.7416H29.3303V12.5509ZM34.4767 12.6463H34.3825V12.7416H34.4767V12.6463ZM34.4767 2.84496V2.7496H34.3825V2.84496H34.4767ZM35.8574 8.64099V8.54562H35.7633V8.64099H35.8574ZM35.8574 12.6463V12.7416H35.9516V12.6463H35.8574ZM35.8574 7.33768H35.7633V7.43304H35.8574V7.33768ZM35.8574 4.15887V4.0635H35.7633V4.15887H35.8574ZM34.5708 12.6463V2.84496H34.3825V12.6463H34.5708ZM34.4767 2.94032H38.4829V2.7496H34.4767V2.94032ZM38.4829 2.94032C39.4766 2.94032 40.2507 3.21052 40.7789 3.68734C41.3071 4.16417 41.5948 4.85821 41.5948 5.73238H41.7831C41.7831 4.81582 41.4797 4.0635 40.9044 3.5496C40.3343 3.03039 39.508 2.75489 38.4829 2.75489V2.94562V2.94032ZM41.5948 5.72708C41.5948 6.60655 41.3071 7.31119 40.7789 7.78801C40.2507 8.27013 39.4766 8.54032 38.4829 8.54032V8.73105C39.508 8.73105 40.3343 8.45026 40.9044 7.92576C41.4745 7.40125 41.7831 6.64893 41.7831 5.72178H41.5948V5.72708ZM38.4829 8.54562H35.8574V8.73635H38.4829V8.54562ZM35.7633 8.64099V12.6463H35.9516V8.64099H35.7633ZM35.8574 12.5509H34.4767V12.7416H35.8574V12.5509ZM35.8574 7.43304H38.4306V7.24231H35.8574V7.43304ZM38.4306 7.43304C39.0373 7.43304 39.5289 7.2847 39.8636 6.98801C40.2036 6.69132 40.3762 6.26218 40.3762 5.72708H40.1879C40.1879 6.2145 40.031 6.59066 39.7381 6.84496C39.4452 7.09926 39.0059 7.24231 38.4254 7.24231V7.43304H38.4306ZM40.3762 5.72708C40.3762 5.20787 40.2036 4.78403 39.8636 4.49794C39.5289 4.21185 39.0373 4.0635 38.4306 4.0635V4.25423C39.0111 4.25423 39.4505 4.39198 39.7433 4.64099C40.031 4.88999 40.1879 5.25026 40.1879 5.72708H40.3762ZM38.4306 4.0635H35.8574V4.25423H38.4306V4.0635ZM35.7633 4.15887V7.33768H35.9516V4.15887H35.7633ZM43.577 12.6463H43.4828V12.7416H43.577V12.6463ZM43.577 2.84496V2.7496H43.4828V2.84496H43.577ZM49.5497 2.84496H49.6438V2.7496H49.5497V2.84496ZM49.5497 4.15887V4.25423H49.6438V4.15887H49.5497ZM44.9577 4.15887V4.0635H44.8636V4.15887H44.9577ZM44.9577 6.83436H44.8636V6.92973H44.9577V6.83436ZM49.5497 6.83436H49.6438V6.739H49.5497V6.83436ZM49.5497 8.15357V8.24893H49.6438V8.15357H49.5497ZM44.9577 8.15357V8.05821H44.8636V8.15357H44.9577ZM44.9577 11.3271H44.8636V11.4224H44.9577V11.3271ZM49.5497 11.3271H49.6438V11.2317H49.5497V11.3271ZM49.5497 12.6463V12.7416H49.6438V12.6463H49.5497ZM43.6711 12.6463V2.84496H43.4828V12.6463H43.6711ZM43.577 2.94032H49.5497V2.7496H43.577V2.94032ZM49.4556 2.84496V4.15887H49.6438V2.84496H49.4556ZM49.5497 4.0635H44.9629V4.25423H49.5497V4.0635ZM44.8636 4.15887V6.83436H45.0519V4.15887H44.8636ZM44.9577 6.92973H49.5445V6.739H44.9577V6.92973ZM49.4556 6.83436V8.14827H49.6438V6.83436H49.4556ZM49.5497 8.05821H44.9629V8.24893H49.5497V8.05821ZM44.8636 8.15357V11.3324H45.0519V8.15357H44.8636ZM44.9577 11.4224H49.5445V11.2317H44.9577V11.4224ZM49.4556 11.3271V12.641H49.6438V11.3271H49.4556ZM49.5497 12.5509H43.577V12.7416H49.5497V12.5509ZM51.8143 12.6463H51.7202V12.7416H51.8143V12.6463ZM51.8143 2.84496V2.7496H51.7202V2.84496H51.8143ZM56.2546 8.48734V8.39198L56.0716 8.40258L56.1814 8.54562L56.2546 8.48734ZM59.445 12.6463V12.7416H59.6385L59.5182 12.588L59.445 12.6463ZM57.7191 12.6463L57.6458 12.7046L57.672 12.7416H57.7191V12.6463ZM54.5392 8.47145L54.6124 8.41317L54.5862 8.37609H54.5392V8.47145ZM53.2003 8.47145V8.37609H53.1061V8.47145H53.2003ZM53.2003 12.6463V12.7416H53.2944V12.6463H53.2003ZM53.2003 7.19993H53.1061V7.29529H53.2003V7.19993ZM53.2003 4.15887V4.0635H53.1061V4.15887H53.2003ZM51.9085 12.6463V2.84496H51.7202V12.6463H51.9085ZM51.8143 2.94032H55.9618V2.7496H51.8143V2.94032ZM55.9618 2.94032C56.9555 2.94032 57.7347 3.19993 58.2577 3.66615C58.786 4.13238 59.0736 4.80523 59.0736 5.65821H59.2619C59.2619 4.75754 58.9586 4.02642 58.3833 3.52311C57.8132 3.01979 56.9868 2.7496 55.9618 2.7496V2.94032ZM59.0736 5.65821C59.0736 6.4741 58.8121 7.13105 58.331 7.59728C57.8498 8.0635 57.1437 8.3443 56.2442 8.39198L56.2546 8.58271C57.1908 8.53503 57.9439 8.23834 58.4617 7.73503C58.9847 7.23172 59.2619 6.52178 59.2619 5.65821H59.0736ZM56.1762 8.54562L59.3665 12.7046L59.513 12.588L56.3174 8.42907L56.171 8.54562H56.1762ZM59.445 12.5509H57.7191V12.7416H59.445V12.5509ZM57.7923 12.588L54.6124 8.41317L54.466 8.52973L57.6458 12.7046L57.7923 12.588ZM54.5392 8.37609H53.2003V8.56681H54.5392V8.37609ZM53.1061 8.47145V12.6463H53.2944V8.47145H53.1061ZM53.2003 12.5509H51.8195V12.7416H53.2003V12.5509ZM53.2003 7.29529H55.967V7.10456H53.2003V7.29529ZM55.9618 7.29529C56.5475 7.29529 57.0235 7.15224 57.3529 6.87145C57.6824 6.58536 57.855 6.17211 57.855 5.6635H57.6668C57.6668 6.12973 57.5151 6.4847 57.2327 6.7284C56.9502 6.97211 56.5266 7.10986 55.967 7.10986V7.30059L55.9618 7.29529ZM57.855 5.65821C57.855 5.16019 57.6824 4.75754 57.3529 4.47675C57.0235 4.20125 56.5527 4.0635 55.9618 4.0635V4.25423C56.5214 4.25423 56.945 4.38668 57.2327 4.62509C57.5151 4.85821 57.6668 5.20787 57.6668 5.65821H57.855ZM55.9618 4.0635H53.1951V4.25423H55.9618V4.0635ZM53.1061 4.15887V7.19463H53.2944V4.15887H53.1061ZM60.7525 9.64761V9.55225H60.6583V9.64761H60.7525ZM62.1751 9.64761H62.2692V9.55225H62.1751V9.64761ZM65.1196 8.30721L65.1039 8.40258L65.1144 8.30721H65.1196ZM68.0641 5.41979V5.51516H68.1582V5.41979H68.0641ZM66.6415 5.41979H66.5474V5.51516H66.6363V5.41979H66.6415ZM64.5966 12.7469C63.4146 12.7469 62.4836 12.445 61.8456 11.9152C61.2075 11.3854 60.8571 10.6118 60.8519 9.65291H60.6636C60.6688 10.6648 61.0454 11.4913 61.7305 12.0635C62.4104 12.6304 63.3937 12.943 64.6018 12.943V12.7522L64.5966 12.7469ZM60.7525 9.74297H62.1751V9.55225H60.7525V9.74297ZM62.0809 9.64761C62.0862 10.2675 62.332 10.7814 62.7713 11.1416C63.2106 11.4966 63.833 11.6873 64.5913 11.6873V11.4966C63.8591 11.4966 63.2838 11.3112 62.8864 10.9933C62.4941 10.6754 62.2744 10.2145 62.2692 9.64761H62.0809ZM64.5966 11.6926C65.2765 11.6926 65.8413 11.5125 66.2388 11.1893C66.6363 10.8609 66.8612 10.3946 66.8612 9.83304H66.6729C66.6729 10.3364 66.4742 10.7496 66.1185 11.041C65.7629 11.3324 65.2451 11.5019 64.5966 11.5019V11.6926ZM66.8612 9.83304C66.8612 9.38271 66.72 9.01185 66.4219 8.73635C66.129 8.46085 65.6949 8.29132 65.1353 8.21185L65.1091 8.40258C65.6531 8.47675 66.0401 8.64099 66.2963 8.8794C66.5474 9.11251 66.6729 9.43039 66.6729 9.83304H66.8612ZM65.1353 8.21185L63.8644 8.03172L63.8382 8.22244L65.1091 8.40258L65.1353 8.21185ZM63.8644 8.02642C62.9491 7.90456 62.2744 7.61317 61.8351 7.18403C61.3958 6.76019 61.1709 6.18801 61.1709 5.47278H60.9826C60.9826 6.23039 61.2232 6.85556 61.7044 7.32178C62.1855 7.78801 62.902 8.0847 63.8382 8.21185L63.8644 8.02112V8.02642ZM61.1657 5.47807C61.1657 4.64628 61.4952 3.96814 62.0757 3.49132C62.6562 3.0145 63.4983 2.7443 64.5286 2.7443V2.55357C63.4721 2.55357 62.583 2.83436 61.9606 3.34297C61.333 3.85158 60.9826 4.58801 60.9826 5.47807H61.1709H61.1657ZM64.5286 2.7443C65.6008 2.7443 66.4533 3.0092 67.039 3.47013C67.6248 3.93105 67.9543 4.5986 67.9752 5.42509H68.1635C68.1426 4.54032 67.7869 3.81979 67.1541 3.32178C66.5265 2.82377 65.6269 2.55357 64.5286 2.55357V2.7443ZM68.0641 5.32443H66.6415V5.51516H68.0641V5.32443ZM66.7357 5.4145C66.7148 4.91119 66.4899 4.49794 66.0976 4.21185C65.7106 3.93105 65.1719 3.78271 64.5234 3.78271V3.97344C65.1457 3.97344 65.6426 4.11648 65.9878 4.37079C66.3277 4.61979 66.5265 4.98006 66.5474 5.42509L66.7357 5.4145ZM64.5286 3.78271C63.9062 3.78271 63.378 3.93105 63.0066 4.21185C62.6301 4.49264 62.4156 4.89529 62.4156 5.3933H62.6039C62.6039 4.96417 62.787 4.6145 63.1165 4.36549C63.4512 4.11648 63.9324 3.97344 64.5286 3.97344V3.78271ZM62.4156 5.3933C62.4156 5.81715 62.5673 6.16152 62.8811 6.41052C63.1897 6.65953 63.6499 6.81847 64.2514 6.90324L64.2775 6.71251C63.6918 6.62774 63.2734 6.4794 63.0014 6.26218C62.7347 6.05026 62.6039 5.76417 62.6039 5.3933H62.4156ZM64.2514 6.90324L65.4543 7.07277L65.4805 6.88205L64.2775 6.71251L64.2514 6.90324ZM65.4543 7.06748C66.3382 7.18933 67.0024 7.48602 67.4417 7.92576C67.8811 8.37079 68.1112 8.97476 68.1112 9.74297H68.2995C68.2995 8.93238 68.0589 8.27542 67.5777 7.78801C67.0965 7.30589 66.3905 7.0039 65.4805 6.87145L65.4543 7.06218V7.06748ZM68.1112 9.74827C68.1112 10.6595 67.7817 11.4065 67.1802 11.9258C66.5788 12.445 65.7001 12.7469 64.5966 12.7469V12.9377C65.7315 12.9377 66.6572 12.6304 67.3005 12.0688C67.9438 11.5125 68.2995 10.7072 68.2995 9.74297H68.1112V9.74827ZM74.1885 12.7469C72.9176 12.7469 71.8559 12.3125 71.1132 11.4754C70.3653 10.6383 69.9312 9.38801 69.9312 7.74562H69.743C69.743 9.41979 70.1875 10.7231 70.9772 11.6026C71.7618 12.4873 72.881 12.9377 74.1937 12.9377V12.7469H74.1885ZM69.926 7.74562C69.926 6.10324 70.3653 4.85291 71.108 4.01582C71.8507 3.17874 72.9124 2.7443 74.1833 2.7443V2.55357C72.8705 2.55357 71.7513 3.0039 70.9668 3.88867C70.1823 4.76814 69.7325 6.07145 69.7325 7.74562H69.9208H69.926ZM74.1885 2.7443C75.4542 2.7443 76.5106 3.17874 77.2533 4.01582C77.996 4.85291 78.4353 6.10324 78.4353 7.74562H78.6236C78.6236 6.07145 78.1738 4.76814 77.3945 3.88867C76.61 3.0039 75.496 2.55357 74.1885 2.55357V2.7443ZM78.4353 7.74562C78.4353 9.38801 77.996 10.6383 77.2533 11.4754C76.5106 12.3125 75.4542 12.7469 74.1885 12.7469V12.9377C75.496 12.9377 76.61 12.4873 77.3945 11.6026C78.179 10.7231 78.6236 9.41979 78.6236 7.74562H78.4353ZM71.1655 7.74562C71.1655 9.02774 71.4689 9.99728 72.0023 10.6542C72.541 11.3112 73.2994 11.6344 74.1885 11.6344V11.4436C73.3517 11.4436 72.6456 11.1364 72.1488 10.5324C71.6519 9.92311 71.3538 9.00125 71.3538 7.74562H71.1655ZM74.1885 11.6344C75.0724 11.6344 75.8255 11.3112 76.3642 10.6542C76.8977 10.0026 77.201 9.02774 77.201 7.74562H77.0127C77.0127 9.00125 76.7146 9.92311 76.2178 10.5324C75.7209 11.1416 75.0201 11.4436 74.1885 11.4436V11.6344ZM77.1958 7.74562C77.1958 6.4635 76.8924 5.49397 76.359 4.83701C75.8255 4.18006 75.0672 3.85688 74.1833 3.85688V4.04761C75.0149 4.04761 75.7157 4.35489 76.2125 4.95887C76.7094 5.56814 77.0075 6.49529 77.0075 7.74562H77.1958ZM74.1885 3.85688C73.2994 3.85688 72.541 4.18006 72.0023 4.83701C71.4689 5.48867 71.1655 6.4635 71.1655 7.74562H71.3538C71.3538 6.48999 71.6519 5.56814 72.1488 4.95887C72.6456 4.3496 73.3517 4.04761 74.1885 4.04761V3.85688ZM80.7418 12.6463H80.6476V12.7416H80.7418V12.6463ZM80.7418 2.84496V2.7496H80.6476V2.84496H80.7418ZM82.4259 2.84496L82.5043 2.79728L82.4782 2.7496H82.4259V2.84496ZM86.9446 10.4741L86.8662 10.5218L87.0388 10.8185V10.4741H86.9446ZM86.9446 2.84496V2.7496H86.8505V2.84496H86.9446ZM88.3306 2.84496H88.4247V2.7496H88.3306V2.84496ZM88.3306 12.6463V12.7416H88.4247V12.6463H88.3306ZM86.6413 12.6463L86.5628 12.694L86.589 12.7416H86.6413V12.6463ZM82.1225 5.00125L82.2062 4.95357L82.0336 4.65688V5.00125H82.1277H82.1225ZM82.1225 12.6463V12.7416H82.2166V12.6463H82.1225ZM80.8359 12.6463V2.84496H80.6476V12.6463H80.8359ZM80.7418 2.94032H82.4259V2.7496H80.7418V2.94032ZM82.3474 2.89264L86.8662 10.5218L87.0283 10.4211L82.5095 2.79198L82.3474 2.89264ZM87.0388 10.4741V2.84496H86.8505V10.4741H87.0388ZM86.9446 2.94032H88.3254V2.7496H86.9446V2.94032ZM88.2364 2.84496V12.6463H88.4247V2.84496H88.2364ZM88.3306 12.5509H86.6465V12.7416H88.3306V12.5509ZM86.725 12.5986L82.2062 4.95357L82.0441 5.04893L86.5628 12.694L86.725 12.5986ZM82.0284 5.00125V12.6463H82.2166V5.00125H82.0284ZM82.1225 12.5509H80.7418V12.7416H82.1225V12.5509ZM90.977 12.6463H90.8829V12.7416H90.977V12.6463ZM90.977 2.84496V2.7496H90.8829V2.84496H90.977ZM92.3577 2.84496H92.4519V2.7496H92.3577V2.84496ZM92.3577 12.6463V12.7416H92.4519V12.6463H92.3577ZM91.0711 12.6463V2.84496H90.8829V12.6463H91.0711ZM90.977 2.94032H92.3577V2.7496H90.977V2.94032ZM92.2636 2.84496V12.6463H92.4519V2.84496H92.2636ZM92.3577 12.5509H90.977V12.7416H92.3577V12.5509ZM102.781 5.98138V6.07675H102.891L102.875 5.97079L102.781 5.98138ZM101.333 5.98138L101.238 5.99728L101.249 6.07675H101.327V5.98138H101.333ZM101.333 9.36681V9.27145H101.254L101.238 9.35092L101.333 9.36681ZM102.771 9.36681L102.865 9.38271L102.881 9.27145H102.771V9.36681ZM98.9267 12.7469C97.661 12.7469 96.6045 12.3284 95.8619 11.5019C95.1192 10.6754 94.6799 9.43039 94.6799 7.76152H94.4916C94.4916 9.46748 94.9361 10.7602 95.7207 11.6344C96.5052 12.5085 97.6192 12.943 98.9267 12.943V12.7522V12.7469ZM94.6799 7.76152C94.6799 6.08734 95.1035 4.83701 95.841 4.00523C96.5784 3.17344 97.6401 2.7496 98.9581 2.7496V2.55887C97.6035 2.55887 96.4842 2.9986 95.705 3.87807C94.9257 4.75754 94.4968 6.06085 94.4968 7.76152H94.6851H94.6799ZM98.9528 2.7443C99.9832 2.7443 100.846 3.04628 101.484 3.60258C102.122 4.15357 102.546 4.96417 102.687 5.99728L102.875 5.97079C102.729 4.90059 102.284 4.04761 101.61 3.45953C100.93 2.87145 100.025 2.55887 98.9528 2.55887V2.7496V2.7443ZM102.781 5.88602H101.327V6.07675H102.781V5.88602ZM101.427 5.96549C101.317 5.29794 101.019 4.77344 100.585 4.40787C100.151 4.04761 99.5857 3.85158 98.9581 3.85158V4.04231C99.5491 4.04231 100.067 4.22244 100.464 4.55092C100.862 4.8794 101.139 5.36681 101.244 5.99198L101.432 5.96019L101.427 5.96549ZM98.9528 3.85688C98.048 3.85688 97.2792 4.15357 96.7458 4.79993C96.2123 5.44099 95.9142 6.41052 95.9142 7.73503H96.1025C96.1025 6.43701 96.3953 5.52046 96.887 4.92708C97.3786 4.3337 98.0899 4.05291 98.9528 4.05291V3.86218V3.85688ZM95.9142 7.72973C95.9142 9.03834 96.228 10.0132 96.7614 10.6648C97.3001 11.3165 98.0585 11.6344 98.9267 11.6344V11.4436C98.1056 11.4436 97.4047 11.1469 96.9079 10.543C96.4058 9.939 96.1025 9.01185 96.1025 7.72973H95.9142ZM98.9267 11.6344C99.6171 11.6344 100.187 11.4013 100.611 10.9986C101.034 10.596 101.306 10.0344 101.421 9.38801L101.233 9.35622C101.123 9.97079 100.867 10.49 100.48 10.8609C100.093 11.2264 99.57 11.4489 98.9215 11.4489V11.6397L98.9267 11.6344ZM101.333 9.46218H102.771V9.27145H101.333V9.46218ZM102.677 9.35622C102.515 10.3575 102.107 11.1999 101.479 11.7986C100.851 12.3973 99.9988 12.7469 98.9267 12.7469V12.9377C100.041 12.9377 100.94 12.5668 101.604 11.9364C102.269 11.3059 102.692 10.4158 102.86 9.38271L102.671 9.35092L102.677 9.35622ZM103.676 12.6463L103.587 12.6145L103.54 12.7416H103.676V12.6463ZM107.368 2.84496V2.7496H107.305L107.284 2.81317L107.373 2.84496H107.368ZM109.23 2.84496L109.319 2.81317L109.298 2.7496H109.235V2.84496H109.23ZM112.922 12.6463V12.7416H113.058L113.011 12.6145L112.922 12.6463ZM111.4 12.6463L111.311 12.6781L111.332 12.7416H111.4V12.6463ZM110.365 9.79066L110.454 9.75887L110.433 9.69529H110.365V9.79066ZM106.217 9.79066V9.69529H106.149L106.128 9.75887L106.217 9.79066ZM105.182 12.6463V12.7416H105.245L105.266 12.6781L105.177 12.6463H105.182ZM106.678 8.51383L106.589 8.48205L106.542 8.6092H106.678V8.51383ZM109.91 8.51383V8.6092H110.046L109.999 8.48205L109.91 8.51383ZM108.294 4.0635L108.383 4.03172L108.294 3.78801L108.205 4.03172L108.294 4.0635ZM103.764 12.6781L107.457 2.87675L107.279 2.80787L103.587 12.6092L103.764 12.6781ZM107.368 2.94032H109.235V2.7496H107.368V2.94032ZM109.146 2.87675L112.839 12.6781L113.016 12.6092L109.324 2.80787L109.146 2.87675ZM112.922 12.5509H111.4V12.7416H112.922V12.5509ZM111.489 12.6145L110.454 9.75887L110.276 9.82244L111.311 12.6781L111.489 12.6145ZM110.365 9.69529H106.217V9.88602H110.365V9.69529ZM106.128 9.75887L105.093 12.6145L105.271 12.6781L106.306 9.82244L106.128 9.75887ZM105.182 12.5509H103.676V12.7416H105.182V12.5509ZM106.678 8.6092H109.91V8.41847H106.678V8.6092ZM109.999 8.48205L108.383 4.03172L108.205 4.09529L109.821 8.54562L109.999 8.48205ZM108.205 4.03172L106.589 8.48205L106.767 8.54562L108.383 4.09529L108.205 4.03172Z" fill="white"/>
<path d="M1.95599 5.44092L10.9674 0.354832H10.9726L11.004 10.8025L5.76347 15.6661H5.75824L8.85444 4.02106C8.85444 4.02106 8.85444 4.01576 8.84921 4.02106L0.345135 12.4502H0.339905L1.95599 5.44622V5.44092Z" fill="#0D34BD"/>
</g>
<defs>
<clipPath id="clip0_1210_94625">
<rect width="113.231" height="16" fill="white"/>
</clipPath>
</defs>
</svg>
