<svg width="114" height="40" viewBox="0 0 114 40" fill="none" xmlns="http://www.w3.org/2000/svg">
<mask id="path-1-inside-1_1766_33547" fill="white">
<path d="M0 6C0 2.68629 2.68629 0 6 0H34C37.3137 0 40 2.68629 40 6V34C40 37.3137 37.3137 40 34 40H6C2.68629 40 0 37.3137 0 34V6Z"/>
</mask>
<path d="M0 6C0 2.68629 2.68629 0 6 0H34C37.3137 0 40 2.68629 40 6V34C40 37.3137 37.3137 40 34 40H6C2.68629 40 0 37.3137 0 34V6Z" fill="white"/>
<path d="M6 0V0.5H34V0V-0.5H6V0ZM40 6H39.5V34H40H40.5V6H40ZM34 40V39.5H6V40V40.5H34V40ZM0 34H0.5V6H0H-0.5V34H0ZM6 40V39.5C2.96243 39.5 0.5 37.0376 0.5 34H0H-0.5C-0.5 37.5899 2.41015 40.5 6 40.5V40ZM40 34H39.5C39.5 37.0376 37.0376 39.5 34 39.5V40V40.5C37.5899 40.5 40.5 37.5899 40.5 34H40ZM34 0V0.5C37.0376 0.5 39.5 2.96243 39.5 6H40H40.5C40.5 2.41015 37.5899 -0.5 34 -0.5V0ZM6 0V-0.5C2.41015 -0.5 -0.5 2.41015 -0.5 6H0H0.5C0.5 2.96243 2.96243 0.5 6 0.5V0Z" fill="#EAEBEB" mask="url(#path-1-inside-1_1766_33547)"/>
<path d="M13.9118 22.7691C13.9118 23.9837 12.9212 24.9758 11.7065 24.9758C10.4917 24.9758 9.5 23.9837 9.5 22.7691C9.5 21.5545 10.492 20.5625 11.7066 20.5625H13.9119L13.9118 22.7691ZM15.0235 22.7691C15.0235 21.5545 16.0155 20.5625 17.2301 20.5625C18.4447 20.5625 19.4367 21.5544 19.4367 22.7691V28.2928C19.4367 29.5073 18.4448 30.4994 17.2301 30.4994C16.0155 30.4994 15.0235 29.5073 15.0235 28.2928V22.7691Z" fill="#DE1C59"/>
<path d="M17.2301 13.9118C16.0155 13.9118 15.0235 12.9212 15.0235 11.7065C15.0235 10.4917 16.0155 9.5 17.2301 9.5C18.4447 9.5 19.4367 10.492 19.4367 11.7066V13.9119L17.2301 13.9118ZM17.2301 15.0235C18.4447 15.0235 19.4367 16.0155 19.4367 17.2301C19.4367 18.4447 18.4448 19.4367 17.2301 19.4367H11.7065C10.4919 19.4367 9.5 18.4448 9.5 17.2301C9.5 16.0155 10.492 15.0235 11.7066 15.0235H17.2301Z" fill="#35C5F0"/>
<path d="M26.0904 17.2301C26.0904 16.0155 27.0809 15.0235 28.2957 15.0235C29.5104 15.0235 30.5023 16.0155 30.5023 17.2301C30.5023 18.4447 29.5103 19.4367 28.2957 19.4367H26.0904V17.2301ZM24.9787 17.2301C24.9787 18.4447 23.9866 19.4367 22.7721 19.4367C21.5575 19.4367 20.5654 18.4448 20.5654 17.2301V11.7065C20.5654 10.4919 21.5573 9.5 22.7721 9.5C23.9866 9.5 24.9787 10.492 24.9787 11.7066V17.2301Z" fill="#2EB57D"/>
<path d="M22.7721 26.0875C23.9866 26.0875 24.9787 27.078 24.9787 28.2928C24.9787 29.5075 23.9866 30.4994 22.7721 30.4994C21.5575 30.4994 20.5654 29.5073 20.5654 28.2928V26.0875H22.7721ZM22.7721 24.9758C21.5575 24.9758 20.5654 23.9837 20.5654 22.7691C20.5654 21.5545 21.5573 20.5625 22.7721 20.5625H28.2957C29.5103 20.5625 30.5023 21.5544 30.5023 22.7691C30.5023 23.9837 29.5103 24.9758 28.2957 24.9758H22.7721Z" fill="#EBB02E"/>
<path d="M52.3536 14.6465L62.3536 24.6465M62.1465 14.6465L52.1465 24.6465" stroke="#A0A4A7" stroke-width="0.5"/>
<mask id="path-8-inside-2_1766_33547" fill="white">
<path d="M74 6C74 2.68629 76.6863 0 80 0H108C111.314 0 114 2.68629 114 6V34C114 37.3137 111.314 40 108 40H80C76.6863 40 74 37.3137 74 34V6Z"/>
</mask>
<path d="M74 6C74 2.68629 76.6863 0 80 0H108C111.314 0 114 2.68629 114 6V34C114 37.3137 111.314 40 108 40H80C76.6863 40 74 37.3137 74 34V6Z" fill="white"/>
<path d="M80 0V0.5H108V0V-0.5H80V0ZM114 6H113.5V34H114H114.5V6H114ZM108 40V39.5H80V40V40.5H108V40ZM74 34H74.5V6H74H73.5V34H74ZM80 40V39.5C76.9624 39.5 74.5 37.0376 74.5 34H74H73.5C73.5 37.5899 76.4101 40.5 80 40.5V40ZM114 34H113.5C113.5 37.0376 111.038 39.5 108 39.5V40V40.5C111.59 40.5 114.5 37.5899 114.5 34H114ZM108 0V0.5C111.038 0.5 113.5 2.96243 113.5 6H114H114.5C114.5 2.41015 111.59 -0.5 108 -0.5V0ZM80 0V-0.5C76.4101 -0.5 73.5 2.41015 73.5 6H74H74.5C74.5 2.96243 76.9624 0.5 80 0.5V0Z" fill="#EAEBEB" mask="url(#path-8-inside-2_1766_33547)"/>
<g clip-path="url(#clip0_1766_33547)">
<path d="M82.0244 13.3846C82.0244 12.7504 82.6906 12.3379 83.2573 12.6214L88.1471 15.0696V20.8155C88.1471 21.6229 88.6031 22.3618 89.3241 22.7228L93.737 24.9323V26.6179C93.737 27.2522 93.0708 27.6647 92.5041 27.3806L83.2014 22.7228C82.4804 22.3618 82.0244 21.6234 82.0244 20.8155V13.3846ZM88.1471 13.3846C88.1471 12.7504 88.8133 12.3379 89.38 12.6219L94.2698 15.0702V20.8161C94.2698 21.6234 94.7258 22.3624 95.4468 22.7234L99.8597 24.9329V26.6185C99.8597 27.2527 99.1935 27.6652 98.6268 27.3812L93.737 24.9329V19.1871C93.737 18.3791 93.281 17.6407 92.56 17.2797L88.1471 15.0702V13.3846ZM94.2693 13.3846C94.2693 12.7504 94.9354 12.3379 95.5022 12.6219L104.805 17.2797C105.526 17.6407 105.982 18.3791 105.982 19.1871V26.6185C105.982 27.2527 105.316 27.6652 104.749 27.3812L99.8591 24.9329V19.1871C99.8591 18.3791 99.4031 17.6407 98.6822 17.2797L94.2693 15.0702V13.3846Z" fill="#02131C"/>
</g>
<defs>
<clipPath id="clip0_1766_33547">
<rect width="24" height="15" fill="white" transform="translate(82 12.5)"/>
</clipPath>
</defs>
</svg>
