<svg width="85" height="20" viewBox="0 0 85 20" fill="none" xmlns="http://www.w3.org/2000/svg">
<path d="M14.6011 2.39624C14.6011 1.07032 13.4989 0 12.1729 0C10.831 0 9.74475 1.07032 9.74475 2.39624V4.79248H12.1729C13.5148 4.79248 14.6011 3.72216 14.6011 2.39624Z" fill="#004DF5"/>
<path d="M14.6011 4.55202V12.8111C14.6011 16.7888 11.3262 19.9998 7.30055 19.9998C3.27486 19.9998 0 16.7728 0 12.8111C0 8.84928 3.25889 5.62234 7.30055 5.62234H12.1569C13.0835 5.62234 13.9621 5.23894 14.5851 4.55202M4.87236 12.8111C4.87236 14.137 5.97463 15.2233 7.30055 15.2073C8.64244 15.2073 9.72874 14.137 9.72874 12.8111V10.4148H7.30055C5.95865 10.4148 4.87236 11.4851 4.87236 12.8111Z" fill="#199AFE"/>
<path d="M41.0077 7.47608H43.4199V17.8598H41.0077V16.5818C40.145 17.5722 38.899 18.1314 37.5731 18.1154C36.1513 18.1633 34.7934 17.5882 33.8349 16.5498C32.8445 15.4955 32.3173 14.0897 32.3652 12.636C32.3173 11.1982 32.8445 9.80842 33.8349 8.77005C34.8094 7.76362 36.1673 7.2045 37.5731 7.23645C38.9149 7.23645 40.0651 7.74765 41.0077 8.802V7.47608ZM40.1929 10.4314C39.6178 9.82439 38.8031 9.48892 37.9564 9.52087C37.1098 9.48892 36.311 9.82439 35.72 10.4314C35.1608 11.0385 34.8573 11.8372 34.8733 12.6679C34.8733 13.5785 35.1608 14.3134 35.72 14.9204C36.295 15.5274 37.1098 15.8629 37.9564 15.831C38.8031 15.8629 39.6019 15.5274 40.1929 14.9204C40.768 14.3134 41.0875 13.4986 41.0716 12.6679C41.0716 11.7893 40.784 11.0545 40.1929 10.4314Z" fill="black"/>
<path d="M53.7238 17.2528C52.8132 17.8439 51.7589 18.1474 50.6726 18.1155C48.2923 18.1155 47.0622 16.7257 47.0622 14.0578V9.58485H45.321V7.47616H47.1102V3.80193H49.6182V7.47616H53.1487V9.58485H49.6182V13.962C49.6182 15.208 50.1294 15.8311 51.1518 15.8311C51.7269 15.8311 52.3339 15.6553 52.941 15.2879L53.7397 17.2369L53.7238 17.2528Z" fill="black"/>
<path d="M55.6407 13.5311V7.49255H58.1807V13.5311C58.1807 14.9209 59.0114 15.8474 60.3853 15.8474C61.7591 15.8474 62.6218 14.9209 62.6218 13.5311V7.49255H65.1618V13.5311C65.1618 16.4066 63.3566 18.1159 60.3853 18.1159C57.4139 18.1159 55.6407 16.4225 55.6407 13.5311Z" fill="black"/>
<path d="M83.4689 8.38682C84.2676 9.16959 84.667 10.2399 84.667 11.6138V17.86H82.127V12.0611C82.127 10.3837 81.2644 9.47312 79.9385 9.47312C78.5167 9.47312 77.5103 10.5275 77.5103 12.125V17.844H74.9862V12.077C74.9862 10.4476 74.0916 9.47312 72.7497 9.47312C71.3439 9.47312 70.3056 10.5115 70.3056 12.1409V17.844H67.7815V7.46027H70.2736V8.94594C70.9446 7.81172 72.1587 7.14077 73.4686 7.17272C74.8424 7.1887 76.0565 7.8277 76.6157 9.02582C77.3665 7.85964 78.7882 7.17272 80.4017 7.17272C81.6637 7.17272 82.6702 7.5721 83.4689 8.35487" fill="black"/>
<path d="M27.988 3.78647V8.8026C27.1892 7.79618 25.9592 7.20511 24.6812 7.23706C23.2115 7.23706 21.9654 7.76423 20.959 8.8026C19.9685 9.84097 19.4414 11.2308 19.4733 12.6685C19.4733 14.2181 19.9845 15.5121 20.959 16.5664C21.9335 17.5888 23.2913 18.1479 24.6971 18.116C26.055 18.116 27.1892 17.5728 28.0519 16.5025V17.8604H30.512V3.80244H27.988V3.78647ZM27.2851 14.921C26.71 15.544 25.8952 15.8795 25.0486 15.8475C24.2179 15.8795 23.4032 15.544 22.844 14.921C22.2689 14.314 21.9654 13.4992 21.9974 12.6685C21.9974 11.7899 22.2849 11.0391 22.844 10.432C23.4032 9.80902 24.154 9.5055 25.0646 9.5055C25.9751 9.5055 26.71 9.80902 27.2851 10.432C27.8602 11.0391 28.1797 11.8378 28.1637 12.6685C28.1637 13.5791 27.8762 14.314 27.317 14.921H27.2851Z" fill="black"/>
</svg>
