<svg width="84" height="22" viewBox="0 0 84 22" fill="none" xmlns="http://www.w3.org/2000/svg">
<path d="M48.6187 2.50938V0L56.8454 3.32207V5.36094L48.6187 8.69727V6.13086L53.4236 4.34864L48.6187 2.50938Z" fill="#A100FF"/>
<path d="M3.16521 21.9857C1.42577 21.9857 0 21.116 0 19.177V19.0771C0 16.7246 2.03885 15.9119 4.54821 15.9119H5.71734V15.4557C5.71734 14.4861 5.30387 13.9158 4.29157 13.9158C3.36482 13.9158 2.90857 14.4291 2.8658 15.142H0.31367C0.513278 12.9891 2.20995 11.9768 4.44841 11.9768C6.68687 11.9768 8.44057 12.9463 8.44057 15.3559V21.8004H5.83141V20.674C5.31813 21.3869 4.44841 22 3.17947 22L3.16521 21.9857ZM5.7316 18.6066V17.6799H4.66227C3.3363 17.6799 2.66619 18.0363 2.66619 18.9061V19.0059C2.66619 19.676 3.07967 20.1322 3.99216 20.1322C4.91891 20.0752 5.7316 19.5762 5.7316 18.5924V18.6066ZM14.5144 21.9857C11.8624 21.9857 9.90911 20.3461 9.90911 17.0811V16.9242C9.90911 13.6592 11.948 11.9197 14.5144 11.9197C16.71 11.9197 18.5065 13.0461 18.7061 15.5555H16.154C15.9972 14.6287 15.4839 14.0156 14.5714 14.0156C13.445 14.0156 12.6323 14.9424 12.6323 16.8244V17.1381C12.6323 19.0771 13.3452 19.9469 14.5714 19.9469C15.4981 19.9469 16.154 19.2768 16.3108 18.2074H18.7632C18.6063 20.4602 17.1235 21.9857 14.5144 21.9857ZM24.5375 21.9857C21.8856 21.9857 19.9323 20.3461 19.9323 17.0811V16.9242C19.9323 13.6592 21.9711 11.9197 24.5375 11.9197C26.7332 11.9197 28.5297 13.0461 28.7293 15.5555H26.1772C26.0203 14.6287 25.507 14.0156 24.5946 14.0156C23.4682 14.0156 22.6555 14.9424 22.6555 16.8244V17.1381C22.6555 19.0771 23.3684 19.9469 24.5946 19.9469C25.5213 19.9469 26.1772 19.2768 26.334 18.2074H28.7863C28.6295 20.4602 27.1467 21.9857 24.5375 21.9857ZM34.6035 21.9857C31.8375 21.9857 29.9555 20.3461 29.9555 17.1238V16.9242C29.9555 13.7019 31.9515 11.9197 34.5607 11.9197C36.9703 11.9197 38.9521 13.2457 38.9521 16.468V17.6371H32.6644C32.7642 19.3766 33.5341 20.0467 34.6605 20.0467C35.6871 20.0467 36.2431 19.4906 36.4427 18.8205H38.9521C38.6384 20.6027 37.1128 21.9857 34.6035 21.9857ZM32.7215 15.8549H36.3001C36.2431 14.4291 35.5873 13.816 34.5179 13.816C33.7052 13.873 32.9353 14.3293 32.7357 15.8549H32.7215ZM40.5917 12.1621H43.3007V13.5879C43.7569 12.6611 44.7264 11.9482 46.2092 11.9482C47.9487 11.9482 49.1178 13.0176 49.1178 15.3273V21.7719H46.4089V15.7408C46.4089 14.6144 45.9526 14.1012 44.9831 14.1012C44.0563 14.1012 43.3007 14.6572 43.3007 15.8834V21.7576H40.5917V12.1478V12.1621ZM54.0938 9.25351V12.1621H55.933V14.1582H54.0938V18.7064C54.0938 19.4193 54.4074 19.7758 55.0633 19.7758C55.4768 19.7758 55.7334 19.7188 55.99 19.6189V21.7148C55.6764 21.8147 55.1203 21.9145 54.4502 21.9145C52.3543 21.9145 51.3848 20.9449 51.3848 19.0059V14.1439H50.2584V12.1478H51.3848V10.3656L54.0938 9.23925V9.25351ZM66.056 21.7719H63.4041V20.3461C62.9478 21.2729 62.0211 21.9857 60.5953 21.9857C58.8558 21.9857 57.5726 20.9164 57.5726 18.6637V12.1764H60.2816V18.3072C60.2816 19.4336 60.7379 19.9469 61.6646 19.9469C62.5914 19.9469 63.347 19.3338 63.347 18.1646V12.1764H66.056V21.7861V21.7719ZM68.0378 12.1621H70.7468V13.9443C71.3028 12.6611 72.2296 12.048 73.6553 12.048V14.7C71.8161 14.7 70.7468 15.2561 70.7468 16.8529V21.8147H68.0378V12.1478V12.1621ZM79.1446 21.9857C76.3786 21.9857 74.4966 20.3461 74.4966 17.1238V16.9242C74.4966 13.7019 76.4926 11.9197 79.1018 11.9197C81.5113 11.9197 83.4932 13.2457 83.4932 16.468V17.6371H77.2625C77.3624 19.3766 78.1323 20.0467 79.2586 20.0467C80.2852 20.0467 80.8412 19.4906 81.0408 18.8205H83.5502C83.1367 20.6027 81.6539 21.9857 79.1588 21.9857H79.1446ZM77.1913 15.8549H80.827C80.7699 14.4291 80.1141 13.816 79.0448 13.816C78.2321 13.873 77.4622 14.3293 77.2055 15.8549H77.1913Z" fill="black"/>
</svg>
