<svg width="74" height="26" viewBox="0 0 74 26" fill="none" xmlns="http://www.w3.org/2000/svg">
<path d="M8.84544 15.8478C8.71141 15.7138 8.64441 15.563 8.64441 15.3619C8.64441 15.1609 8.71141 15.0101 8.84544 14.8761C8.97946 14.7421 9.1303 14.6751 9.33133 14.6751C9.53237 14.6751 9.66634 14.7421 9.80036 14.8761C9.93438 15.0101 9.98462 15.1609 9.98462 15.3619C9.98462 15.563 9.91763 15.7138 9.80036 15.8478C9.66634 15.9818 9.51561 16.0488 9.33133 16.0488C9.14705 16.0488 8.97946 15.9818 8.84544 15.8478ZM9.80036 17.0205V23.0347H8.79523V17.0205H9.80036Z" fill="black"/>
<path d="M16.2168 17.5735C16.6691 18.0091 16.9036 18.6624 16.9036 19.4833V23.0349H15.9153V19.6341C15.9153 19.031 15.7645 18.5787 15.4629 18.2604C15.1614 17.9421 14.7593 17.7913 14.24 17.7913C13.7207 17.7913 13.3018 17.9588 12.9835 18.2771C12.6652 18.6122 12.5144 19.0813 12.5144 19.7179V23.0349H11.5093V17.0207H12.5144V17.8751C12.7154 17.5735 12.9836 17.3222 13.3186 17.1547C13.6537 16.9872 14.039 16.9034 14.441 16.9034C15.1781 16.9034 15.7645 17.1212 16.2168 17.5735Z" fill="black"/>
<path d="M19.7516 17.8415V21.3931C19.7516 21.6779 19.8186 21.8957 19.9359 22.013C20.0532 22.1303 20.271 22.1973 20.5893 22.1973H21.3264V23.0349H20.4218C19.8689 23.0349 19.4501 22.9009 19.1653 22.6496C18.8805 22.3983 18.7465 21.9795 18.7465 21.3931V17.8415H17.9758V17.0207H18.7465V15.5129H19.7516V17.0207H21.3264V17.8415H19.7516Z" fill="black"/>
<path d="M27.9774 20.3881H23.1692C23.2027 20.9744 23.4039 21.4435 23.7724 21.7786C24.141 22.1136 24.5933 22.2811 25.1126 22.2811C25.5482 22.2811 25.9 22.1806 26.2016 21.9796C26.5031 21.7786 26.6874 21.5105 26.8047 21.1755H27.8769C27.7094 21.7451 27.391 22.2309 26.9052 22.5827C26.4194 22.9513 25.8162 23.1188 25.1126 23.1188C24.543 23.1188 24.0236 22.9848 23.5881 22.7335C23.1357 22.4822 22.784 22.1136 22.5327 21.6445C22.2814 21.1755 22.1473 20.6226 22.1473 20.0028C22.1473 19.3829 22.2647 18.8301 22.516 18.361C22.7672 17.8919 23.1191 17.5401 23.5714 17.272C24.0237 17.004 24.543 16.8867 25.1294 16.8867C25.7157 16.8867 26.2015 17.004 26.6371 17.2553C27.0727 17.5066 27.4078 17.8416 27.6591 18.2772C27.8936 18.7128 28.0108 19.1986 28.0108 19.7515C28.0108 19.9357 28.0109 20.1368 27.9774 20.3546V20.3881ZM26.7376 18.5955C26.5701 18.3275 26.3356 18.1097 26.0508 17.9757C25.766 17.8249 25.4477 17.7579 25.0959 17.7579C24.5933 17.7579 24.1577 17.9254 23.8059 18.2437C23.454 18.562 23.253 19.0143 23.2028 19.5839H27.0057C27.0057 19.1986 26.9219 18.8803 26.7544 18.5955H26.7376Z" fill="black"/>
<path d="M33.1706 17.2547C33.5559 17.4892 33.8575 17.774 34.0418 18.1091V17.0201H35.0469V23.1684C35.0469 23.7213 34.9296 24.2071 34.6951 24.6259C34.4605 25.0615 34.1255 25.3966 33.6899 25.6311C33.2544 25.8656 32.7518 25.9997 32.1655 25.9997C31.3781 25.9997 30.7246 25.8154 30.1885 25.4468C29.6692 25.0783 29.3509 24.5589 29.2504 23.9223H30.2389C30.3561 24.2909 30.5739 24.5757 30.9257 24.8102C31.2775 25.028 31.6796 25.1453 32.1655 25.1453C32.7183 25.1453 33.1539 24.9777 33.5057 24.6259C33.8575 24.2741 34.025 23.805 34.025 23.1852V21.9287C33.824 22.2805 33.5391 22.5653 33.1538 22.7999C32.7685 23.0344 32.3162 23.1517 31.7969 23.1517C31.2775 23.1517 30.7749 23.0177 30.3394 22.7496C29.9038 22.4816 29.5688 22.113 29.3175 21.6439C29.0662 21.1748 28.9489 20.622 28.9489 20.0189C28.9489 19.4158 29.0662 18.863 29.3175 18.3939C29.5688 17.9248 29.9038 17.573 30.3394 17.3049C30.7749 17.0536 31.2608 16.9196 31.7969 16.9196C32.3329 16.9196 32.7685 17.0369 33.1706 17.2547ZM33.7737 18.8294C33.5894 18.4944 33.3381 18.2431 33.0365 18.0588C32.7182 17.8745 32.3832 17.7908 32.0147 17.7908C31.6461 17.7908 31.2943 17.8745 30.9928 18.0588C30.6912 18.2431 30.4399 18.4944 30.2556 18.8294C30.0713 19.1645 29.9875 19.5666 29.9875 20.0189C29.9875 20.4712 30.0713 20.8733 30.2556 21.2251C30.4399 21.5602 30.6912 21.8282 30.9928 21.9957C31.2943 22.18 31.6461 22.2638 32.0147 22.2638C32.3832 22.2638 32.735 22.18 33.0365 21.9957C33.3549 21.8114 33.5894 21.5602 33.7737 21.2251C33.958 20.89 34.0418 20.488 34.0418 20.0356C34.0418 19.5833 33.958 19.1813 33.7737 18.8462V18.8294Z" fill="black"/>
<path d="M38.498 17.1882C38.8163 17.0039 39.2185 16.9034 39.6875 16.9034V17.9421H39.4194C38.297 17.9421 37.7441 18.5452 37.7441 19.7681V23.0349H36.739V17.0207H37.7441V17.9923C37.9284 17.6405 38.163 17.3892 38.498 17.1882Z" fill="black"/>
<path d="M40.8435 18.3777C41.0948 17.9086 41.4298 17.5568 41.8654 17.2887C42.3009 17.0374 42.7868 16.9034 43.3229 16.9034C43.8589 16.9034 44.3113 17.0207 44.6966 17.2385C45.0819 17.473 45.3667 17.7578 45.5678 18.0929V17.0039H46.5729V23.0182H45.5678V21.8957C45.3667 22.2476 45.0819 22.5324 44.6798 22.7669C44.2945 23.0014 43.8254 23.1187 43.3061 23.1187C42.7867 23.1187 42.2842 22.9847 41.8654 22.7166C41.4298 22.4486 41.0948 22.08 40.8435 21.611C40.5922 21.1419 40.4749 20.589 40.4749 19.9859C40.4749 19.3828 40.5922 18.83 40.8435 18.3609V18.3777ZM45.2829 18.83C45.0986 18.4949 44.8473 18.2436 44.5458 18.0593C44.2275 17.8751 43.8924 17.7913 43.5239 17.7913C43.1553 17.7913 42.8035 17.8751 42.502 18.0593C42.2004 18.2436 41.9491 18.4949 41.7649 18.83C41.5806 19.165 41.4968 19.5671 41.4968 20.0194C41.4968 20.4718 41.5806 20.8738 41.7649 21.2256C41.9491 21.5607 42.2004 21.8287 42.502 21.9963C42.8035 22.1805 43.1553 22.2643 43.5239 22.2643C43.8924 22.2643 44.2442 22.1805 44.5458 21.9963C44.8641 21.812 45.0986 21.5607 45.2829 21.2256C45.4672 20.8906 45.551 20.4885 45.551 20.0362C45.551 19.5839 45.4672 19.1818 45.2829 18.8467V18.83Z" fill="black"/>
<path d="M49.488 17.8415V21.3931C49.488 21.6779 49.5549 21.8957 49.6722 22.013C49.7895 22.1303 50.0073 22.1973 50.3256 22.1973H51.0627V23.0349H50.1581C49.6053 23.0349 49.1864 22.9009 48.9016 22.6496C48.6168 22.3983 48.4828 21.9795 48.4828 21.3931V17.8415H47.7122V17.0207H48.4828V15.5129H49.488V17.0207H51.0627V17.8415H49.488Z" fill="black"/>
<path d="M52.2856 15.8476C52.1516 15.7135 52.0846 15.5628 52.0846 15.3617C52.0846 15.1607 52.1516 15.0099 52.2856 14.8759C52.4196 14.7419 52.5705 14.6749 52.7715 14.6749C52.9726 14.6749 53.1065 14.7419 53.2405 14.8759C53.3746 15.0099 53.4249 15.1607 53.4249 15.3617C53.4249 15.5628 53.3578 15.7135 53.2405 15.8476C53.1065 15.9816 52.9558 16.0486 52.7715 16.0486C52.5872 16.0486 52.4196 15.9816 52.2856 15.8476ZM53.2573 17.0203V23.0345H52.2522V17.0203H53.2573Z" fill="black"/>
<path d="M56.055 22.7496C55.6027 22.4983 55.2342 22.1298 54.9829 21.6607C54.7316 21.1916 54.5975 20.6387 54.5975 20.0189C54.5975 19.399 54.7315 18.863 54.9996 18.3939C55.2676 17.9248 55.6362 17.5562 56.0886 17.3049C56.5409 17.0536 57.0602 16.9196 57.6298 16.9196C58.1994 16.9196 58.7188 17.0536 59.1711 17.3049C59.6402 17.5562 59.992 17.9248 60.26 18.3939C60.528 18.863 60.6621 19.4158 60.6621 20.0356C60.6621 20.6555 60.528 21.2083 60.2432 21.6774C59.9752 22.1465 59.5899 22.5151 59.1376 22.7664C58.6685 23.0177 58.1492 23.1517 57.5796 23.1517C57.01 23.1517 56.5073 23.0177 56.055 22.7664V22.7496ZM58.5847 21.9957C58.903 21.8282 59.1544 21.5769 59.3554 21.2419C59.5564 20.9068 59.6402 20.488 59.6402 20.0189C59.6402 19.5498 59.5397 19.131 59.3554 18.7959C59.1711 18.4609 58.9198 18.2096 58.6015 18.0421C58.2999 17.8745 57.9649 17.7908 57.5964 17.7908C57.2278 17.7908 56.8927 17.8745 56.5911 18.0421C56.2896 18.2096 56.0383 18.4609 55.854 18.7959C55.6697 19.131 55.586 19.5498 55.586 20.0189C55.586 20.488 55.6697 20.9236 55.854 21.2586C56.0383 21.5937 56.2728 21.845 56.5744 22.0125C56.8759 22.18 57.211 22.2638 57.5628 22.2638C57.9146 22.2638 58.2664 22.18 58.5679 22.0125L58.5847 21.9957Z" fill="black"/>
<path d="M66.6931 17.5735C67.1455 18.0091 67.38 18.6624 67.38 19.4833V23.0349H66.3916V19.6341C66.3916 19.031 66.2408 18.5787 65.9392 18.2604C65.6377 17.9421 65.2357 17.7913 64.7163 17.7913C64.197 17.7913 63.7782 17.9588 63.4599 18.2771C63.1415 18.6122 62.9907 19.0813 62.9907 19.7179V23.0349H61.9856V17.0207H62.9907V17.8751C63.1918 17.5735 63.4598 17.3222 63.7948 17.1547C64.1299 16.9872 64.5153 16.9034 64.9173 16.9034C65.6545 16.9034 66.2408 17.1212 66.6931 17.5735Z" fill="black"/>
<path d="M69.893 22.8831C69.5244 22.7323 69.2397 22.5145 69.0219 22.2297C68.8041 21.9449 68.6868 21.6266 68.67 21.2581H69.7087C69.7422 21.5596 69.8762 21.8109 70.1275 21.9952C70.3788 22.1795 70.7139 22.28 71.116 22.28C71.5013 22.28 71.8028 22.1962 72.0206 22.0287C72.2384 21.8612 72.3557 21.6434 72.3557 21.3921C72.3557 21.1408 72.2384 20.9397 72.0038 20.8057C71.7693 20.6717 71.4007 20.5544 70.9149 20.4204C70.4625 20.3031 70.1108 20.1859 69.826 20.0686C69.5412 19.9513 69.3067 19.7671 69.1056 19.5325C68.9046 19.298 68.8041 18.9797 68.8041 18.5943C68.8041 18.2928 68.8878 18.008 69.0721 17.7567C69.2564 17.5054 69.5077 17.3044 69.8428 17.1536C70.1778 17.0028 70.5631 16.9358 70.9987 16.9358C71.6688 16.9358 72.2049 17.1034 72.6069 17.4384C73.009 17.7735 73.2436 18.2425 73.2603 18.8289H72.2552C72.2384 18.5106 72.1043 18.2593 71.8698 18.075C71.6353 17.8907 71.3337 17.7902 70.9484 17.7902C70.5966 17.7902 70.3118 17.874 70.094 18.0248C69.8762 18.1755 69.7757 18.3766 69.7757 18.6279C69.7757 18.8289 69.8428 18.9964 69.96 19.1137C70.0941 19.2477 70.2448 19.3482 70.4458 19.4152C70.6469 19.499 70.9149 19.5828 71.2499 19.6665C71.6855 19.7838 72.0373 19.9011 72.3054 20.0183C72.5734 20.1356 72.8079 20.3031 73.009 20.5209C73.21 20.7555 73.3106 21.0403 73.3106 21.4088C73.3106 21.7439 73.2268 22.0287 73.0425 22.2967C72.8582 22.5648 72.607 22.7658 72.2719 22.9166C71.9369 23.0674 71.5515 23.1344 71.1327 23.1344C70.6636 23.1344 70.2615 23.0506 69.893 22.8998V22.8831Z" fill="black"/>
<path d="M20.6226 11.576C19.7515 11.0901 19.0646 10.3865 18.562 9.49861C18.0594 8.59395 17.825 7.55527 17.825 6.36582C17.825 5.17637 18.0762 4.15445 18.5955 3.24979C19.0981 2.34514 19.8017 1.65828 20.6729 1.17244C21.5608 0.686612 22.5324 0.452072 23.6214 0.452072C24.7103 0.452072 25.6987 0.686612 26.5699 1.17244C27.441 1.65828 28.1446 2.34514 28.6472 3.23304C29.1498 4.12094 29.4179 5.17637 29.4179 6.34907C29.4179 7.52177 29.1498 8.5772 28.6304 9.48185C28.1111 10.3865 27.3908 11.0734 26.5029 11.5592C25.615 12.045 24.6098 12.2963 23.5209 12.2963C22.4319 12.2963 21.477 12.045 20.6059 11.5592L20.6226 11.576ZM25.4809 10.152C26.084 9.83366 26.5698 9.34783 26.9384 8.71122C27.307 8.07461 27.4913 7.28723 27.4913 6.36582C27.4913 5.44442 27.307 4.65704 26.9384 4.02043C26.5698 3.38382 26.1008 2.89799 25.5144 2.57968C24.9281 2.26138 24.2915 2.11061 23.6046 2.11061C22.9177 2.11061 22.2644 2.26138 21.6949 2.57968C21.1085 2.89799 20.6561 3.36707 20.3043 4.02043C19.9525 4.65704 19.785 5.44442 19.785 6.36582C19.785 7.28723 19.9525 8.09136 20.3043 8.72797C20.6561 9.36458 21.1085 9.85041 21.6781 10.1687C22.2477 10.487 22.8843 10.6378 23.5712 10.6378C24.258 10.6378 24.8946 10.4703 25.4977 10.152H25.4809Z" fill="black"/>
<path d="M46.4387 0.636551L42.8536 12.1122H40.8767L38.4979 2.9987L36.1692 12.1122H34.1924L30.5906 0.636551H32.5339L35.1808 9.29776L37.5932 0.636551H39.5365L41.9322 9.31452L44.5288 0.636551H46.4219H46.4387Z" fill="black"/>
<path d="M59.087 7.08565H49.9065C49.9735 8.22484 50.3588 9.09599 51.0624 9.7326C51.766 10.3692 52.6205 10.6875 53.6256 10.6875C54.4465 10.6875 55.1334 10.5032 55.6862 10.1179C56.2391 9.7326 56.6244 9.21326 56.8422 8.57665H58.9027C58.6012 9.68234 57.9814 10.5702 57.06 11.2739C56.1386 11.9607 54.9994 12.3125 53.6256 12.3125C52.5367 12.3125 51.565 12.0612 50.7106 11.5754C49.8562 11.0896 49.1861 10.386 48.6835 9.49806C48.181 8.61016 47.9464 7.55473 47.9464 6.36528C47.9464 5.17582 48.1809 4.13715 48.6668 3.24925C49.1359 2.36135 49.806 1.67448 50.6604 1.18865C51.5148 0.702817 52.5032 0.468277 53.6256 0.468277C54.7481 0.468277 55.6862 0.702817 56.5239 1.18865C57.3615 1.65773 58.0148 2.31109 58.4671 3.14873C58.9195 3.98638 59.1541 4.92454 59.1541 5.96321C59.1541 6.33177 59.1372 6.71709 59.087 7.11915V7.08565ZM56.7081 3.66807C56.3898 3.14873 55.9543 2.74666 55.4014 2.47862C54.8486 2.21057 54.2455 2.07655 53.5753 2.07655C52.6204 2.07655 51.7996 2.3781 51.1127 2.99796C50.4426 3.61781 50.0405 4.32143 49.9568 5.41036H57.2107C57.2107 4.68999 57.0432 4.20416 56.7249 3.68482L56.7081 3.66807Z" fill="black"/>
<path d="M65.4532 0.619537C66.073 0.250974 66.8269 0.234222 67.7315 0.234222V2.39534H67.229C65.0846 2.39534 64.0291 3.55129 64.0291 5.87993V12.1287H62.1193V0.653043H64.0291V1.876C64.3642 1.22264 64.85 1.00486 65.4698 0.636293L65.4532 0.619537Z" fill="black"/>
<path d="M4.55662 18.7297C4.12105 18.7297 3.76929 18.3779 3.76929 17.9423V8.29265C3.76929 7.92409 4.03732 7.58904 4.38913 7.52203C4.7577 7.43826 5.12621 7.6393 5.27698 7.97435C5.99735 9.63288 7.63922 10.7051 9.44852 10.7051C11.9614 10.7051 14.0052 8.66122 14.0052 6.14829C14.0052 3.63537 11.9614 1.59152 9.44852 1.59152C7.73973 1.59152 6.19842 2.52968 5.41103 4.03743C5.21 4.42275 4.72414 4.57352 4.33883 4.37249C3.95351 4.17146 3.80282 3.68563 4.00385 3.30031C5.05928 1.27322 7.15338 0 9.44852 0C12.8326 0 15.58 2.74746 15.58 6.13154C15.58 9.51561 12.8326 12.2631 9.44852 12.2631C7.90726 12.2631 6.44974 11.6767 5.34406 10.6883V17.9255C5.34406 18.3611 4.99219 18.7129 4.55662 18.7129V18.7297Z" fill="black"/>
<path d="M8.32611 6.90184H0.787334C0.351761 6.90184 0 6.55003 0 6.11446C0 5.67888 0.351761 5.32707 0.787334 5.32707H8.32611C8.76168 5.32707 9.11355 5.67888 9.11355 6.11446C9.11355 6.55003 8.76168 6.90184 8.32611 6.90184Z" fill="#0085CA"/>
</svg>
