<svg width="69" height="12" viewBox="0 0 69 12" fill="none" xmlns="http://www.w3.org/2000/svg">
<path d="M24.2573 12C21.7907 12 19.5057 11.2585 17.9773 9.89659C16.8726 8.91299 16.2522 7.49054 16.2673 6.00756C16.2673 4.52459 16.8878 3.11728 17.9773 2.13367C19.3998 0.847415 21.8966 0.0302641 24.2573 0.0302641C26.8601 0.0302641 28.9483 0.680958 30.5523 2.13367C31.6419 3.13241 32.2472 4.53972 32.2321 6.00756C32.2321 7.47541 31.6116 8.88272 30.5523 9.89659C29.0694 11.2736 26.7239 12 24.2573 12V10.4262C25.5587 10.4262 26.7844 9.97226 27.6318 9.12484C28.4792 8.27743 28.8575 7.26356 28.8575 5.99243C28.8575 4.72131 28.4338 3.66204 27.6318 2.86002C26.7995 2.04287 25.5587 1.57377 24.2573 1.57377C22.9559 1.57377 21.7151 2.02774 20.8828 2.86002C20.0808 3.66204 19.6571 4.79697 19.6571 5.99243C19.6268 7.15763 20.0808 8.27743 20.8828 9.12484C21.7151 9.95712 22.9559 10.4262 24.2573 10.4262V12ZM6.23464 0.0151313C4.91812 0.0151313 3.41999 0.25725 2.14887 0.832281C0.968541 1.36192 0 2.20933 0 3.61664C0 4.35813 0.272413 5.06936 0.786915 5.59899C1.13496 5.91677 1.67979 6.4464 3.11736 6.76419C3.76806 6.90038 5.12996 7.11223 6.50701 7.26355C7.88406 7.41488 9.20051 7.53594 9.74527 7.68726C10.1841 7.79319 10.9105 7.94451 10.9105 8.76166C10.9105 9.57881 10.1388 9.82093 10.0177 9.88146C9.88155 9.94199 8.95841 10.3506 7.30898 10.3506C6.21945 10.3203 5.1299 10.1387 4.08577 9.79067C3.46534 9.56368 2.82981 9.27617 2.22451 8.54981C1.98239 8.20176 1.84619 7.79319 1.83105 7.36948H0.332961V11.5612H1.99749V10.9861C1.99749 10.8499 2.10347 10.744 2.23966 10.744C2.28506 10.744 2.33048 10.744 2.36074 10.7743C3.14763 11.1223 3.96476 11.3796 4.79704 11.5612C5.67472 11.7427 6.23459 11.8789 7.32413 11.8789C8.47419 11.8941 9.6091 11.7427 10.7138 11.3947C11.4401 11.198 12.1211 10.8651 12.7264 10.396C13.4074 9.86633 13.816 9.04918 13.8008 8.18663C13.8008 7.38461 13.4982 6.59773 12.9383 6.0227C12.6205 5.72005 12.2573 5.47793 11.8638 5.29634C11.4401 5.09962 11.0013 4.9483 10.5473 4.84237C9.68479 4.63052 7.74781 4.37327 6.82473 4.26734C5.85626 4.16141 4.1615 4.02522 3.49567 3.81337C3.29895 3.75284 2.87519 3.55612 2.87519 3.07188C2.87519 2.72383 3.07191 2.43632 3.43509 2.1942C4.02525 1.81589 5.23587 1.5889 6.49186 1.5889C7.70245 1.5889 8.913 1.81589 10.0328 2.28499C10.3354 2.42118 10.623 2.58764 10.8802 2.78436C11.3039 3.14754 11.5915 3.63178 11.7126 4.17654H13.0593V0.529633H11.5612V0.95334C11.5612 1.08953 11.4251 1.27112 11.1527 1.1198C10.4717 0.771752 8.58008 0.0151324 6.24969 0L6.23464 0.0151313ZM39.1022 0.696091L46.4263 7.29382L46.3506 2.84489C46.3506 2.25473 46.2295 2.01261 45.6091 2.01261H44.2321V0.680958H50.4969V2.01261H49.1501C48.5146 2.01261 48.4691 2.22446 48.454 2.84489L48.5599 11.3342H46.4112L37.9824 3.81337V9.15511C37.9824 9.73014 38.0126 10.0025 38.6179 10.0025H40.116V11.3342H33.9723V10.0025H35.4099C35.9395 10.0025 35.9244 9.48802 35.9244 9.12484V2.89029C35.9244 2.48171 35.8638 2.01261 35.0316 2.01261H33.8663V0.680958H39.1022V0.696091ZM57.6242 10.0025C57.7453 10.0025 57.8663 10.0025 57.9874 9.97226C58.1236 9.92686 58.2295 9.83607 58.2749 9.71501C58.29 9.62421 58.3052 9.51828 58.3052 9.42749V7.32408C58.3052 7.32408 58.3052 7.24842 58.2144 7.1425C58.1236 7.03657 54.3859 2.78436 54.2043 2.60277C53.9924 2.37579 53.6142 2.01261 53.0543 2.01261H51.7529V0.680958H59.0921V2.01261H58.2144C58.0177 2.01261 57.8815 2.20933 58.048 2.42118C58.048 2.42118 60.5145 5.372 60.5448 5.40227C60.575 5.43253 60.5902 5.44767 60.6205 5.40227C60.6508 5.35687 63.1476 2.43632 63.1627 2.40605C63.2535 2.30012 63.2232 2.13367 63.1173 2.04287C63.0719 2.01261 63.0114 1.98235 62.9509 1.99748H62.0429V0.665825H68.0505V1.99748H66.7037C66.2194 1.99748 66.0227 2.08827 65.6444 2.49685L61.5889 7.11223C61.5889 7.11223 61.5284 7.23329 61.5436 7.30895V9.41236C61.5436 9.50315 61.5435 9.60908 61.5738 9.69987C61.6343 9.82093 61.7251 9.91173 61.8613 9.95712C61.9823 9.97226 62.1035 9.98739 62.2245 9.98739H63.6016V11.319H56.3077V9.98739H57.6091L57.6242 10.0025Z" fill="black"/>
</svg>
