<svg width="72" height="18" viewBox="0 0 72 18" fill="none" xmlns="http://www.w3.org/2000/svg">
<path d="M19.9705 13.8427H17.9573C14.1072 13.8427 11.0359 10.6979 11.0359 6.92134C11.0359 3.14473 14.1807 0 17.9573 0H19.9705V13.828V13.8427Z" fill="black"/>
<path d="M0 0.0144958H2.01322C5.86333 0.0144958 8.9346 3.15922 8.9346 6.93583C8.9346 10.7124 5.78985 13.8572 2.01322 13.8572H0V0.029194V0.0144958Z" fill="black"/>
<path d="M48.0529 0.0144958V13.8425H50.1396V0.0144958H48.0529Z" fill="black"/>
<path d="M41.9103 4.26224C39.2652 4.26224 37.1197 6.40771 37.1197 9.05281C37.1197 11.6979 39.2652 13.8434 41.9103 13.8434C44.5554 13.8434 46.7009 11.6979 46.7009 9.05281C46.7009 6.40771 44.5554 4.26224 41.9103 4.26224ZM41.9103 11.9183C40.3232 11.933 39.0154 10.6546 38.986 9.0675C38.9713 7.48044 40.2497 6.17259 41.8368 6.1432C41.8662 6.1432 41.8809 6.1432 41.9103 6.1432C43.4973 6.1432 44.7905 7.45105 44.7905 9.02341C44.7905 10.6105 43.4973 11.9036 41.9103 11.9036V11.9183Z" fill="black"/>
<path d="M56.7376 4.27541C55.753 4.27541 54.7978 4.56931 54.0043 5.14242V0.0285645H51.9029V13.8565H54.0043V12.9895C56.1645 14.5031 59.1476 13.9741 60.6611 11.7992C62.1747 9.63909 61.6457 6.656 59.4709 5.14242C58.6626 4.58401 57.7074 4.27541 56.7376 4.27541ZM56.7376 11.9168C55.1505 11.9021 53.872 10.5943 53.8867 8.9925C53.9014 7.42014 55.1652 6.15637 56.7376 6.14168C58.3246 6.14168 59.6178 7.44953 59.6178 9.02189C59.6178 10.609 58.3246 11.9021 56.7376 11.9021V11.9168Z" fill="black"/>
<path d="M29.155 0.0144958H24.1734V13.8278H29.155C32.961 13.8278 36.0617 10.7271 36.0617 6.92114C36.0617 3.11514 32.961 0.0144958 29.155 0.0144958ZM29.155 11.7264H26.2601V2.10119H29.155C31.8001 2.10119 33.9603 4.26135 33.9603 6.92114C33.9603 9.58093 31.8001 11.7264 29.155 11.7264Z" fill="black"/>
<path d="M69.1991 4.27694L66.4658 10.4047L63.7326 4.27694H61.4401L65.3049 12.9764C65.3049 12.9764 64.3644 15.1071 64.3497 15.1071C64.0999 15.6656 63.4387 15.9154 62.8802 15.6802L62.5863 15.548L61.734 17.4436L62.4541 17.7669C63.8207 18.3694 65.4225 17.7669 66.025 16.3856L71.4475 4.26224H69.155L69.1991 4.27694Z" fill="black"/>
</svg>
