<svg width="46" height="28" viewBox="0 0 46 28" fill="none" xmlns="http://www.w3.org/2000/svg">
<g clip-path="url(#clip0_633_37657)">
<path d="M0.545166 1.65098C0.545166 0.466995 1.79424 -0.302964 2.85686 0.226185L12.0252 4.7963V15.5219C12.0252 17.0291 12.8802 18.4084 14.2321 19.0823L22.5062 23.2067V26.3531C22.5062 27.537 21.2572 28.307 20.1946 27.7768L2.75197 19.0823C1.40013 18.4084 0.545166 17.0301 0.545166 15.5219V1.65098ZM12.0252 1.65098C12.0252 0.466995 13.2743 -0.302964 14.3369 0.22724L23.5053 4.79736V15.5229C23.5053 17.0301 24.3602 18.4095 25.7121 19.0833L33.9863 23.2077V26.3541C33.9863 27.5381 32.7372 28.308 31.6746 27.7779L22.5062 23.2077V12.4822C22.5062 10.9739 21.6512 9.5956 20.2995 8.92174L12.0252 4.79736V1.65098ZM23.5042 1.65098C23.5042 0.466995 24.7533 -0.302964 25.8159 0.22724L43.2585 8.92174C44.6114 9.5956 45.4653 10.9739 45.4653 12.4822V26.3541C45.4653 27.5381 44.2163 28.308 43.1536 27.7779L33.9853 23.2077V12.4822C33.9853 10.9739 33.1303 9.5956 31.7784 8.92174L23.5042 4.79736V1.65098Z" fill="white"/>
</g>
<defs>
<clipPath id="clip0_633_37657">
<rect width="45" height="28" fill="white" transform="translate(0.5)"/>
</clipPath>
</defs>
</svg>
