<svg width="1769" height="368" viewBox="0 0 1769 368" fill="none" xmlns="http://www.w3.org/2000/svg">
<path d="M1 20.6413C1 5.3174 17.1 -4.64793 30.7966 2.20067L148.972 61.3502V200.168C148.972 219.674 159.992 237.527 177.417 246.248L284.068 299.63V340.352C284.068 355.675 267.968 365.641 254.271 358.779L29.4447 246.248C12.0201 237.527 1 219.688 1 200.168V20.6413ZM148.972 20.6413C148.972 5.3174 165.072 -4.64793 178.769 2.21435L296.945 61.3638V200.182C296.945 219.688 307.965 237.541 325.39 246.262L432.041 299.643V340.366C432.041 355.689 415.94 365.654 402.244 358.792L284.068 299.643V160.826C284.068 141.306 273.048 123.466 255.623 114.744L148.972 61.3638V20.6413ZM296.931 20.6413C296.931 5.3174 313.032 -4.64793 326.728 2.21435L551.555 114.744C568.993 123.466 580 141.306 580 160.826V340.366C580 355.689 563.899 365.654 550.203 358.792L432.027 299.643V160.826C432.027 141.306 421.007 123.466 403.582 114.744L296.931 61.3638V20.6413Z" fill="#121212"/>
<path d="M1518.88 360.212H1474.4L1474.46 214.401C1472.55 187.613 1458.48 168.672 1431.12 164.778C1384.18 158.081 1355.6 188.548 1352.29 233.3L1352.35 360.212H1307.35V132.974H1337.34L1352.62 181.276H1355.14C1364.06 152.03 1384.88 134.641 1415.58 128.03C1468.24 116.72 1515.72 147.676 1518.9 202.689V360.212H1518.88Z" fill="#121212"/>
<path d="M1136.61 129.142C1094.49 138.067 1062.73 169.238 1059.46 213.156H1104.43C1106.43 191.915 1120.21 174.785 1139.93 167.197C1162.88 158.344 1202.13 159.422 1219.42 179.183C1231.04 192.476 1234.91 215.47 1219.66 227.441C1201.18 241.956 1155.39 237.544 1132.25 238.651C1098.87 240.246 1066.16 253.798 1059.18 289.712C1044 367.891 1145.52 385.539 1195.54 348.892C1211.53 337.18 1223.01 319.374 1227.31 299.958H1229.6L1245.71 360.217H1273.55V203.686C1272.88 133.439 1192.34 117.314 1136.59 129.142H1136.61ZM1217 286.004C1199.78 317.951 1159.53 342.684 1125 330.21C1097.48 320.279 1096.23 279.781 1123.21 268.917C1149.73 258.239 1208.88 269.29 1228.08 240.002C1227.41 255.566 1224.72 271.69 1217.02 286.004H1217Z" fill="#121212"/>
<path d="M775.663 244.504V360.207H728.525V50.9811H861.488C862.537 50.9236 863.514 51.4266 864.549 51.4841C926.101 54.847 966.642 84.4948 965.234 150.071C963.955 209.783 918.312 241.989 862.005 244.518H775.663V244.504ZM775.663 90.9187V206.104H855.84C895.965 203.201 921.287 182.851 917.061 140.327C913.239 101.812 882.901 92.169 848.698 90.89C824.568 89.9846 799.85 91.6229 775.663 90.9044V90.9187Z" fill="#121212"/>
<path d="M1031.86 50.9844H987.291V360.21H1031.86V50.9844Z" fill="#121212"/>
<path d="M1723.71 294.434C1716.72 309.567 1703.8 321.697 1687.74 327.071C1669.05 333.323 1640.72 331.771 1623.26 322.401C1598.4 309.064 1587.29 281.543 1587.23 254.224H1767.56C1769.77 230.856 1767.65 206.626 1757.4 185.271C1732.54 133.434 1672.62 114.535 1619.11 130.703C1556.13 149.745 1536.44 214.286 1545.88 274.3C1556.07 339.186 1609.52 371.349 1673.34 366.851C1716.51 363.819 1755.76 335.967 1766.81 294.42H1723.73L1723.71 294.434ZM1587.75 221.73C1591.9 176.619 1632.47 154.444 1674.84 163.369C1705.42 169.807 1722.82 196.336 1723.5 226.602H1587.27C1587.27 226.602 1587.62 223.096 1587.75 221.745V221.73Z" fill="#121212"/>
</svg>
