<svg width="24" height="24" viewBox="0 0 24 24" fill="none" xmlns="http://www.w3.org/2000/svg">
<path d="M3.63696 3.43383L12.377 12.0048L3.70196 20.6548C3.56003 20.47 3.44986 20.2628 3.37596 20.0418C3.33773 19.7916 3.33773 19.5371 3.37596 19.2868V4.56683C3.34996 4.17183 3.44096 3.77683 3.63596 3.43383M16.142 8.26683L13.289 11.0928L4.65296 2.59983C4.93296 2.50283 5.23296 2.47583 5.52596 2.52183C5.98596 2.64783 6.42496 2.84183 6.82796 3.09483L14.644 7.41983C15.152 7.69283 15.647 7.97983 16.142 8.26683ZM13.29 12.9298L16.129 15.7178L14.071 16.8638L7.79196 20.3538C7.27196 20.6408 6.74996 20.9148 6.24196 21.2278C6.02458 21.3632 5.78084 21.4506 5.527 21.4842C5.27316 21.5178 5.01507 21.4969 4.76996 21.4228L13.29 12.9298ZM20.65 12.0048C20.6572 12.3545 20.5689 12.6995 20.3944 13.0027C20.2199 13.3058 19.966 13.5555 19.66 13.7248L17.314 15.0268L14.227 12.0048L17.327 8.93083C18.122 9.37383 18.904 9.81683 19.685 10.2338C19.9964 10.4079 20.2523 10.6666 20.4229 10.98C20.5935 11.2934 20.6728 11.6487 20.65 12.0048Z" fill="#E4E6E7"/>
</svg>
