<?xml version="1.0" encoding="utf-8"?>
<!-- Generator: Adobe Illustrator 15.0.0, SVG Export Plug-In . SVG Version: 6.00 Build 0)  -->
<!DOCTYPE svg PUBLIC "-//W3C//DTD SVG 1.1//EN" "http://www.w3.org/Graphics/SVG/1.1/DTD/svg11.dtd">
<svg version="1.1" id="Layer_1" xmlns="http://www.w3.org/2000/svg" xmlns:xlink="http://www.w3.org/1999/xlink" x="0px" y="0px"
	 width="551.569px" height="77.927px" viewBox="0 0 551.569 77.927" enable-background="new 0 0 551.569 77.927"
	 xml:space="preserve">
<g>
	<g>
		<path fill="#002244" d="M141.25,30.449V18.028c0-1.583-1.109-2.375-3.087-2.375h-3.323V8.689h29.277v6.964h-4.905
			c-1.979,0-3.086,1.188-3.086,3.166v32.442c0,2.059,1.108,2.927,3.086,2.927h4.827v6.966h-29.12v-6.966h3.245
			c1.979,0,3.087-0.474,3.087-2.609V37.414h-17.41V51.42c0,1.899,1.108,2.768,3.085,2.768h3.245v6.966h-29.121v-6.966h4.828
			c1.978,0,3.086-1.187,3.086-3.165V17.79c0-1.345-1.108-2.137-3.086-2.137h-4.907V8.689h29.279v6.964h-3.325
			c-1.977,0-3.085,0.712-3.085,3.401v11.395H141.25z"/>
		<path fill="#002244" d="M181.125,42.635c0,9.337,1.66,13.374,6.407,13.374c4.748,0,6.411-4.037,6.411-13.374
			c0-9.337-1.663-13.373-6.411-13.373C182.785,29.263,181.125,33.298,181.125,42.635 M207.948,42.635
			c0,12.66-8.625,19.704-20.417,19.704c-11.789,0-20.416-7.043-20.416-19.704s8.627-19.703,20.416-19.703
			C199.323,22.933,207.948,29.975,207.948,42.635"/>
		<path fill="#002244" d="M227.885,42.952c0,7.754,1.819,12.583,6.251,12.583c4.431,0,6.25-4.829,6.25-12.583
			s-1.819-12.662-6.25-12.662C229.704,30.291,227.885,35.198,227.885,42.952 M227.251,29.896h0.159
			c2.294-4.828,6.411-6.963,11.476-6.963c11.947,0,15.507,10.05,15.507,19.702c0,9.655-3.561,19.705-15.507,19.705
			c-4.75,0-9.182-1.821-10.842-5.302l-0.159,0.157v11c0,2.215,0.554,3.402,2.848,3.402h3.245v6.33h-25.084v-6.33h3.006
			c2.296,0,2.849-1.188,2.849-3.402V33.853c0-2.218-0.553-3.404-2.849-3.404h-3.085v-6.328h18.437V29.896z"/>
		<path fill="#002244" d="M285.881,38.126v-2.059c0-4.036-2.138-6.805-5.935-6.805c-3.878,0-6.014,2.769-6.014,6.805v2.059H285.881z
			 M273.773,44.456c0,5.539,1.266,11.08,7.915,11.08c2.767,0,7.28-2.138,7.99-6.807h9.179c-1.266,9.497-10.523,13.611-19.07,13.611
			c-13.529,0-20.02-7.518-20.02-19.705c0-12.263,8.705-19.702,20.02-19.702c12.899,0,20.097,9.179,20.097,21.523H273.773z"/>
	</g>
	<g>
		<path fill="#002244" d="M352.131,58.094c-1.545,0.948-3.42,1.802-5.616,2.559c-2.198,0.755-4.581,1.132-7.149,1.132
			c-2.987,0-5.732-0.491-8.226-1.478c-2.499-0.982-4.661-2.363-6.489-4.141c-1.826-1.775-3.251-3.884-4.271-6.327
			c-1.021-2.446-1.529-5.11-1.529-7.994c0-2.848,0.516-5.493,1.556-7.938c1.035-2.442,2.47-4.555,4.296-6.33
			c1.831-1.775,4.003-3.173,6.519-4.194c2.513-1.02,5.229-1.528,8.146-1.528c2.568,0,4.951,0.378,7.149,1.133
			c2.196,0.757,4.071,1.608,5.616,2.558l-1.738,3.587c-1.654-0.948-3.5-1.74-5.542-2.373c-2.038-0.634-3.988-0.95-5.855-0.95
			c-2.423,0-4.607,0.405-6.54,1.214s-3.567,1.934-4.902,3.376c-1.338,1.442-2.356,3.138-3.06,5.089
			c-0.704,1.953-1.055,4.071-1.055,6.356s0.37,4.406,1.105,6.356c0.742,1.952,1.802,3.64,3.195,5.064
			c1.386,1.425,3.064,2.542,5.035,3.35c1.969,0.81,4.165,1.212,6.591,1.212c1.865,0,3.816-0.317,5.855-0.948
			c2.039-0.634,3.888-1.425,5.542-2.373L352.131,58.094z"/>
		<path fill="#002244" d="M390.479,41.846c0-2.286-0.36-4.413-1.081-6.382c-0.721-1.97-1.731-3.684-3.033-5.143
			c-1.299-1.458-2.847-2.602-4.642-3.429c-1.792-0.827-3.763-1.239-5.906-1.239c-2.146,0-4.124,0.412-5.936,1.239
			s-3.366,1.97-4.668,3.429c-1.301,1.459-2.312,3.173-3.033,5.143c-0.721,1.969-1.081,4.096-1.081,6.382s0.36,4.414,1.081,6.384
			c0.721,1.968,1.732,3.684,3.033,5.143c1.302,1.458,2.856,2.603,4.668,3.427c1.812,0.827,3.79,1.241,5.936,1.241
			c2.144,0,4.114-0.414,5.906-1.241c1.795-0.825,3.343-1.969,4.642-3.427c1.302-1.459,2.312-3.175,3.033-5.143
			C390.119,46.26,390.479,44.131,390.479,41.846 M395.07,41.846c0,2.883-0.529,5.547-1.584,7.994
			c-1.055,2.443-2.472,4.552-4.247,6.327c-1.775,1.777-3.841,3.159-6.197,4.141c-2.355,0.987-4.835,1.478-7.438,1.478
			c-2.6,0-5.062-0.491-7.382-1.478c-2.324-0.982-4.355-2.363-6.095-4.141c-1.741-1.775-3.113-3.884-4.114-6.327
			c-1.004-2.446-1.505-5.11-1.505-7.994c0-2.918,0.53-5.598,1.585-8.044c1.054-2.443,2.469-4.545,4.247-6.302
			c1.775-1.759,3.838-3.141,6.194-4.141c2.358-1.002,4.837-1.503,7.438-1.503c2.604,0,5.064,0.5,7.384,1.503
			c2.322,1,4.356,2.382,6.098,4.141c1.739,1.757,3.11,3.859,4.112,6.302C394.569,36.248,395.07,38.928,395.07,41.846"/>
		<polygon fill="#002244" points="402.188,61.151 402.188,22.488 406.409,22.488 406.409,57.354 424.817,57.354 424.817,61.151 		
			"/>
		<polygon fill="#002244" points="429.989,61.151 429.989,22.488 434.207,22.488 434.207,57.354 452.618,57.354 452.618,61.151 		
			"/>
		<polygon fill="#002244" points="457.784,61.151 457.784,22.488 480.416,22.488 480.416,26.285 462.003,26.285 462.003,39.631 
			478.566,39.631 478.566,43.429 462.003,43.429 462.003,57.354 480.416,57.354 480.416,61.151 		"/>
		<g>
			<path fill="#002244" d="M521.561,42.005V57.25c-1.971,1.475-4.1,2.6-6.385,3.376c-2.286,0.771-4.869,1.158-7.755,1.158
				c-2.673,0-5.253-0.474-7.749-1.424c-2.501-0.948-4.71-2.293-6.628-4.035c-1.91-1.741-3.443-3.832-4.586-6.276
				c-1.142-2.445-1.717-5.178-1.717-8.204c0-3.023,0.593-5.766,1.772-8.229c1.176-2.458,2.714-4.562,4.615-6.302
				c1.896-1.742,4.052-3.086,6.458-4.035c2.409-0.95,4.866-1.426,7.36-1.426c1.584,0,3.04,0.115,4.378,0.342
				c1.335,0.231,2.575,0.547,3.717,0.951c1.145,0.405,2.237,0.897,3.272,1.478c1.035,0.578,2.063,1.222,3.084,1.924l-2.213,3.323
				c-1.792-1.3-3.746-2.329-5.855-3.085c-2.109-0.757-4.219-1.134-6.332-1.134c-2.458,0-4.666,0.44-6.62,1.318
				c-1.947,0.88-3.595,2.067-4.93,3.562s-2.355,3.217-3.06,5.169c-0.704,1.952-1.055,4-1.055,6.145c0,2.287,0.421,4.413,1.266,6.384
				c0.847,1.969,1.985,3.683,3.427,5.143c1.444,1.458,3.149,2.603,5.12,3.427c1.969,0.827,4.076,1.241,6.328,1.241
				c1.898,0,3.63-0.21,5.197-0.633c1.562-0.423,3.118-1.091,4.666-2.005v-9.44h-10.231v-3.956H521.561z"/>
		</g>
		<polygon fill="#002244" points="528.942,61.151 528.942,22.488 551.569,22.488 551.569,26.285 533.163,26.285 533.163,39.631 
			549.727,39.631 549.727,43.429 533.163,43.429 533.163,57.354 551.569,57.354 551.569,61.151 		"/>
	</g>
	<g>
		<path fill="#f46a1f" d="M80.578,45.785L54.131,10.259L49.08,3.589c-1.492-1.778-3.399-2.76-5.464-3.332
			c-3.651-0.782-7.254,0.227-9.833,2.921L2.04,44.653c-2.213,2.735-2.636,7.084-1.217,10.326c1.483,3.454,5.035,5.914,8.74,6.112
			l51.751,0.041l11.403-0.027c1.641-0.186,3.146-0.604,4.51-1.437c1.145-0.66,2.318-1.872,3.055-2.968
			C82.372,53.702,82.558,48.88,80.578,45.785 M59.181,26.054l-1.706,0.853c-0.106-0.542-0.249-1.187,0.012-1.703
			c0.328-0.362,0.845-0.403,1.294-0.292c2.278,0.619,3.548,3.084,4.095,5.131c-0.03,0.583,0.097,1.209-0.316,1.616
			c-0.69,0.531-1.591,0.245-2.277-0.124c-0.667-0.396-1.22-1.088-1.583-1.716c0.565-0.423,1.32-0.742,1.863-1.236
			C60.333,27.659,59.8,26.839,59.181,26.054 M18.551,58.725L8.218,58.665c-2.83-0.723-4.755-2.619-5.645-5.072
			c-0.818-2.464-0.537-5.604,1.261-7.529l5.827-7.621c0.356,1.207,0.693,2.414,1.371,3.474c-2.345,2.843-4.755,6.034-3.623,9.942
			c1.403,4.982,6.688,6.143,11.142,6.607V58.725z M15.696,48.367c-0.21-0.215-0.25-0.624-0.163-0.926
			c0.279,0.046,0.668-0.061,0.843-0.319c0.644-2.833-0.734-5.579,0.06-8.373c-0.014-0.751,1.216-1.689-0.046-2.261
			c-0.39,0.147-0.715,0.49-1.082,0.703c-1.404,0.83-3.229,0.086-4.76,0.589c-0.215-0.068-0.148-0.386,0.001-0.518L35.798,4.435
			c1.797-1.983,4.428-2.396,7.027-1.967c1.934,0.469,3.758,1.579,4.99,3.397l13.816,18.339c0.039,0.151-0.177,0.146-0.265,0.209
			c-1.068-1.103-2.393-1.887-3.969-1.469c-1.101,0.274-1.82,1.469-1.976,2.507c-0.073,0.838,0.075,1.594,0.238,2.324l-1.079,0.661
			c-1.335-2.702-2.652-5.492-3.984-8.232l0.216-0.256c-0.383-0.498-0.378-1.488-1.128-1.52l-2.585-5.483
			c0.285-0.604-0.38-1.209-0.568-1.814l-0.406-0.217l-2.397-4.926c0.215-0.474-0.188-0.974-0.443-1.405
			c-1.074-0.012-2.136,0.48-2.913,1.27c0.102,0.496,0.184,1.056,0.61,1.296l1.881,5.182c-0.35,0.58,0.142,1.294,0.396,1.874
			l0.362,0.112l2.243,6.153l-0.179,0.151c0.299,0.539,0.204,1.467,0.872,1.62l3.25,8.659L19.995,46.375
			C18.571,47.098,17.249,48.035,15.696,48.367 M33.337,49.577c-3.282,1.179-7.367,1.173-10.893,0.5l10.933-6.123l0.109,0.087
			C33.212,45.802,33.091,47.806,33.337,49.577 M78.925,54.103c-0.724,1.679-2.372,3.386-4.076,4.107
			c-1.188,0.489-2.525,0.67-3.922,0.639l-8.521,0.046l-40.844-0.022c-0.04-0.043,0-0.254,0-0.341
			c4.595-0.789,8.905-2.262,13.136-3.969c0.636,1.292,1.488,2.721,2.816,3.527l0.626-0.109c4.383-2.119,8.864-5.896,11.287-10.291
			c1.151-1.282,2.702-1.981,3.639-3.334c0.066-0.493-0.101-0.861-0.251-1.25c-0.536,0.041-1.035,0.491-1.616,0.613
			c-4.467,1.367-8.145-1.759-12.796-1.018c-1.335,0.142-2.673,0.453-3.92,0.681v-0.105l16.699-9.374l4.223,8.558
			c-0.283,0.642,0.421,1.139,0.544,1.742l0.411,0.224l2.754,5.661c-0.157,0.537,0.354,1.08,0.614,1.593l0.256,0.11l2.141,4.411
			c-0.196,0.452,0.231,0.929,0.442,1.337c1.163,0.075,2.239-0.539,3.064-1.376c-0.166-0.477-0.252-1.118-0.721-1.343l-1.666-4.442
			c0.327-0.516-0.229-1.166-0.397-1.728l-0.365-0.154L60.2,42.603l0.217-0.218l-0.612-1.659l-0.409-0.154
			c-1.159-3.092-2.385-6.159-3.46-9.287c0.39-0.105,0.777-0.682,1.142-0.336c1.195,1.797,3.052,3.451,5.358,3.141
			c0.993-0.27,2.054-1.167,2.277-2.221c0.33-1.422-0.024-2.847-0.637-4.032l0.214-0.152l14.214,19.182
			C79.739,48.905,79.866,51.896,78.925,54.103"/>
	</g>
</g>
</svg>
