<?xml version="1.0" ?><!DOCTYPE svg  PUBLIC '-//W3C//DTD SVG 1.1//EN'  'http://www.w3.org/Graphics/SVG/1.1/DTD/svg11.dtd'><svg id="Layer_1" style="enable-background:new 0 0 75 75;" version="1.1" viewBox="0 0 75 75" xml:space="preserve" xmlns="http://www.w3.org/2000/svg" xmlns:xlink="http://www.w3.org/1999/xlink"><style type="text/css">
	.st0{fill:#EC008C;}
	.st1{fill:#FFFFFF;}
	.st2{fill:#00AAAD;}
	.st3{fill:#F9A01B;}
	.st4{fill:#B2D235;}
</style><g><path class="st3" d="M62.5,73.5h-50c-6.1,0-11-4.9-11-11v-50c0-6.1,4.9-11,11-11h50c6.1,0,11,4.9,11,11v50   C73.5,68.6,68.6,73.5,62.5,73.5z"/><g><path class="st1" d="M37.5,24.9c-9.7,0-17.5,5.3-17.5,11.9c0,3.5,2.3,6.7,5.9,8.9l-4.1,4.3l8-2.6c2.3,0.8,5,1.2,7.7,1.2    c9.7,0,17.5-5.3,17.5-11.9C55,30.3,47.2,24.9,37.5,24.9z M46.9,33.3H27.6v-1.5h19.3V33.3z M46.9,37.5H27.6V36h19.3V37.5z     M46.9,41.7H27.6v-1.5h19.3V41.7z"/></g></g></svg>